<svg xmlns="http://www.w3.org/2000/svg" width="128" height="128" viewBox="0 0 128 128"><rect width="128" height="128" fill="white"/><rect x="0.0" y="0" width="128.0" height="128" fill="white" stroke="#3a3a3a" stroke-width="2.5"/><rect x="24.0" y="24.0" width="80.0" height="31.0" fill="white" stroke="#3a3a3a" stroke-width="1.6"/><line x1="40.0" y1="24.0" x2="40.0" y2="55.0" stroke="#3a3a3a" stroke-width="1.6"/><line x1="56.0" y1="24.0" x2="56.0" y2="55.0" stroke="#3a3a3a" stroke-width="1.6"/><line x1="72.0" y1="24.0" x2="72.0" y2="55.0" stroke="#3a3a3a" stroke-width="1.6"/><line x1="88.0" y1="24.0" x2="88.0" y2="55.0" stroke="#3a3a3a" stroke-width="1.6"/><rect x="24.0" y="73.0" width="80.0" height="31.0" fill="white" stroke="#3a3a3a" stroke-width="1.6"/><line x1="40.0" y1="73.0" x2="40.0" y2="104.0" stroke="#3a3a3a" stroke-width="1.6"/><line x1="56.0" y1="73.0" x2="56.0" y2="104.0" stroke="#3a3a3a" stroke-width="1.6"/><line x1="72.0" y1="73.0" x2="72.0" y2="104.0" stroke="#3a3a3a" stroke-width="1.6"/><line x1="88.0" y1="73.0" x2="88.0" y2="104.0" stroke="#3a3a3a" stroke-width="1.6"/><rect x="-1.5" y="12.2" width="6" height="14" fill="#3a3a3a"/><rect x="-1.5" y="57.0" width="6" height="14" fill="#3a3a3a"/><rect x="-1.5" y="101.8" width="6" height="14" fill="#3a3a3a"/><circle cx="116.0" cy="26.4" r="5" fill="white" stroke="#3a3a3a" stroke-width="1.6"/><polygon points="112.5,58.4 119.5,58.4 116.0,44.4" fill="#3a3a3a"/><circle cx="116.0" cy="44.4" r="4" fill="#3a3a3a"/></svg>