<svg xmlns="http://www.w3.org/2000/svg" width="256" height="256" viewBox="0 0 256 256"><rect width="256" height="256" fill="white"/><rect x="0" y="0" width="128.0" height="256" fill="white" stroke="#3a3a3a" stroke-width="2.5"/><rect x="14" y="14.0" width="100.0" height="105.0" fill="white" stroke="#3a3a3a" stroke-width="1.6"/><line x1="34.0" y1="14.0" x2="34.0" y2="119.0" stroke="#3a3a3a" stroke-width="1.6"/><line x1="54.0" y1="14.0" x2="54.0" y2="119.0" stroke="#3a3a3a" stroke-width="1.6"/><line x1="74.0" y1="14.0" x2="74.0" y2="119.0" stroke="#3a3a3a" stroke-width="1.6"/><line x1="94.0" y1="14.0" x2="94.0" y2="119.0" stroke="#3a3a3a" stroke-width="1.6"/><rect x="14" y="137.0" width="100.0" height="105.0" fill="white" stroke="#3a3a3a" stroke-width="1.6"/><line x1="34.0" y1="137.0" x2="34.0" y2="242.0" stroke="#3a3a3a" stroke-width="1.6"/><line x1="54.0" y1="137.0" x2="54.0" y2="242.0" stroke="#3a3a3a" stroke-width="1.6"/><line x1="74.0" y1="137.0" x2="74.0" y2="242.0" stroke="#3a3a3a" stroke-width="1.6"/><line x1="94.0" y1="137.0" x2="94.0" y2="242.0" stroke="#3a3a3a" stroke-width="1.6"/><rect x="-1.5" y="31.4" width="6" height="14" fill="#3a3a3a"/><rect x="-1.5" y="121.0" width="6" height="14" fill="#3a3a3a"/><rect x="-1.5" y="210.6" width="6" height="14" fill="#3a3a3a"/><circle cx="118.0" cy="123.1" r="4.5" fill="white" stroke="#3a3a3a" stroke-width="1.6"/><circle cx="118.0" cy="137.1" r="3.5" fill="#3a3a3a"/><rect x="128.0" y="0" width="128.0" height="256" fill="white" stroke="#3a3a3a" stroke-width="2.5"/><rect x="142.0" y="14.0" width="100.0" height="105.0" fill="white" stroke="#3a3a3a" stroke-width="1.6"/><line x1="162.0" y1="14.0" x2="162.0" y2="119.0" stroke="#3a3a3a" stroke-width="1.6"/><line x1="182.0" y1="14.0" x2="182.0" y2="119.0" stroke="#3a3a3a" stroke-width="1.6"/><line x1="202.0" y1="14.0" x2="202.0" y2="119.0" stroke="#3a3a3a" stroke-width="1.6"/><line x1="222.0" y1="14.0" x2="222.0" y2="119.0" stroke="#3a3a3a" stroke-width="1.6"/><rect x="142.0" y="137.0" width="100.0" height="105.0" fill="white" stroke="#3a3a3a" stroke-width="1.6"/><line x1="162.0" y1="137.0" x2="162.0" y2="242.0" stroke="#3a3a3a" stroke-width="1.6"/><line x1="182.0" y1="137.0" x2="182.0" y2="242.0" stroke="#3a3a3a" stroke-width="1.6"/><line x1="202.0" y1="137.0" x2="202.0" y2="242.0" stroke="#3a3a3a" stroke-width="1.6"/><line x1="222.0" y1="137.0" x2="222.0" y2="242.0" stroke="#3a3a3a" stroke-width="1.6"/><rect x="251.5" y="31.4" width="6" height="14" fill="#3a3a3a"/><rect x="251.5" y="121.0" width="6" height="14" fill="#3a3a3a"/><rect x="251.5" y="210.6" width="6" height="14" fill="#3a3a3a"/><circle cx="138.0" cy="123.1" r="4.5" fill="white" stroke="#3a3a3a" stroke-width="1.6"/><circle cx="138.0" cy="137.1" r="3.5" fill="#3a3a3a"/></svg>