<svg xmlns="http://www.w3.org/2000/svg" width="128" height="128" viewBox="0 0 128 128"><rect width="128" height="128" fill="white"/><rect x="0" y="0" width="128" height="128" fill="white" stroke="#3a3a3a" stroke-width="2.5"/><rect x="14" y="14.0" width="100" height="41.0" fill="white" stroke="#3a3a3a" stroke-width="1.6"/><line x1="34.0" y1="14.0" x2="34.0" y2="55.0" stroke="#3a3a3a" stroke-width="1.6"/><line x1="54.0" y1="14.0" x2="54.0" y2="55.0" stroke="#3a3a3a" stroke-width="1.6"/><line x1="74.0" y1="14.0" x2="74.0" y2="55.0" stroke="#3a3a3a" stroke-width="1.6"/><line x1="94.0" y1="14.0" x2="94.0" y2="55.0" stroke="#3a3a3a" stroke-width="1.6"/><rect x="14" y="73.0" width="100" height="41.0" fill="white" stroke="#3a3a3a" stroke-width="1.6"/><line x1="34.0" y1="73.0" x2="34.0" y2="114.0" stroke="#3a3a3a" stroke-width="1.6"/><line x1="54.0" y1="73.0" x2="54.0" y2="114.0" stroke="#3a3a3a" stroke-width="1.6"/><line x1="74.0" y1="73.0" x2="74.0" y2="114.0" stroke="#3a3a3a" stroke-width="1.6"/><line x1="94.0" y1="73.0" x2="94.0" y2="114.0" stroke="#3a3a3a" stroke-width="1.6"/><rect x="-1.5" y="12.2" width="6" height="14" fill="#3a3a3a"/><rect x="-1.5" y="57.0" width="6" height="14" fill="#3a3a3a"/><rect x="-1.5" y="101.8" width="6" height="14" fill="#3a3a3a"/><circle cx="118.0" cy="56.6" r="4.5" fill="white" stroke="#3a3a3a" stroke-width="1.6"/><circle cx="118.0" cy="70.6" r="3.5" fill="#3a3a3a"/></svg>