<svg xmlns="http://www.w3.org/2000/svg" width="128" height="384" viewBox="0 0 128 384"><rect width="128" height="384" fill="white"/><rect x="0" y="0" width="128" height="384" fill="white" stroke="#3a3a3a" stroke-width="2.5"/><rect x="14" y="14.0" width="100" height="106.66666666666667" fill="white" stroke="#3a3a3a" stroke-width="1.6"/><line x1="34.0" y1="14.0" x2="34.0" y2="120.7" stroke="#3a3a3a" stroke-width="1.6"/><line x1="54.0" y1="14.0" x2="54.0" y2="120.7" stroke="#3a3a3a" stroke-width="1.6"/><line x1="74.0" y1="14.0" x2="74.0" y2="120.7" stroke="#3a3a3a" stroke-width="1.6"/><line x1="94.0" y1="14.0" x2="94.0" y2="120.7" stroke="#3a3a3a" stroke-width="1.6"/><rect x="14" y="138.66666666666669" width="100" height="106.66666666666669" fill="white" stroke="#3a3a3a" stroke-width="1.6"/><line x1="34.0" y1="138.7" x2="34.0" y2="245.3" stroke="#3a3a3a" stroke-width="1.6"/><line x1="54.0" y1="138.7" x2="54.0" y2="245.3" stroke="#3a3a3a" stroke-width="1.6"/><line x1="74.0" y1="138.7" x2="74.0" y2="245.3" stroke="#3a3a3a" stroke-width="1.6"/><line x1="94.0" y1="138.7" x2="94.0" y2="245.3" stroke="#3a3a3a" stroke-width="1.6"/><rect x="14" y="263.33333333333337" width="100" height="106.66666666666669" fill="white" stroke="#3a3a3a" stroke-width="1.6"/><line x1="34.0" y1="263.3" x2="34.0" y2="370.0" stroke="#3a3a3a" stroke-width="1.6"/><line x1="54.0" y1="263.3" x2="54.0" y2="370.0" stroke="#3a3a3a" stroke-width="1.6"/><line x1="74.0" y1="263.3" x2="74.0" y2="370.0" stroke="#3a3a3a" stroke-width="1.6"/><line x1="94.0" y1="263.3" x2="94.0" y2="370.0" stroke="#3a3a3a" stroke-width="1.6"/><rect x="-1.5" y="50.6" width="6" height="14" fill="#3a3a3a"/><rect x="-1.5" y="185.0" width="6" height="14" fill="#3a3a3a"/><rect x="-1.5" y="319.4" width="6" height="14" fill="#3a3a3a"/><circle cx="118.0" cy="189.7" r="4.5" fill="white" stroke="#3a3a3a" stroke-width="1.6"/><circle cx="118.0" cy="203.7" r="3.5" fill="#3a3a3a"/></svg>