<svg xmlns="http://www.w3.org/2000/svg" width="256" height="256" viewBox="0 0 256 256"><rect width="256" height="256" fill="white"/><rect x="0.0" y="0" width="128.0" height="256" fill="white" stroke="#3a3a3a" stroke-width="2.5"/><rect x="24.0" y="24.0" width="80.0" height="95.0" fill="white" stroke="#3a3a3a" stroke-width="1.6"/><line x1="40.0" y1="24.0" x2="40.0" y2="119.0" stroke="#3a3a3a" stroke-width="1.6"/><line x1="56.0" y1="24.0" x2="56.0" y2="119.0" stroke="#3a3a3a" stroke-width="1.6"/><line x1="72.0" y1="24.0" x2="72.0" y2="119.0" stroke="#3a3a3a" stroke-width="1.6"/><line x1="88.0" y1="24.0" x2="88.0" y2="119.0" stroke="#3a3a3a" stroke-width="1.6"/><rect x="24.0" y="137.0" width="80.0" height="95.0" fill="white" stroke="#3a3a3a" stroke-width="1.6"/><line x1="40.0" y1="137.0" x2="40.0" y2="232.0" stroke="#3a3a3a" stroke-width="1.6"/><line x1="56.0" y1="137.0" x2="56.0" y2="232.0" stroke="#3a3a3a" stroke-width="1.6"/><line x1="72.0" y1="137.0" x2="72.0" y2="232.0" stroke="#3a3a3a" stroke-width="1.6"/><line x1="88.0" y1="137.0" x2="88.0" y2="232.0" stroke="#3a3a3a" stroke-width="1.6"/><rect x="-1.5" y="31.4" width="6" height="14" fill="#3a3a3a"/><rect x="-1.5" y="121.0" width="6" height="14" fill="#3a3a3a"/><rect x="-1.5" y="210.6" width="6" height="14" fill="#3a3a3a"/><circle cx="116.0" cy="116.0" r="5" fill="white" stroke="#3a3a3a" stroke-width="1.6"/><polygon points="112.5,143.8 119.5,143.8 116.0,129.8" fill="#3a3a3a"/><circle cx="116.0" cy="134.0" r="4" fill="#3a3a3a"/><rect x="128.0" y="0" width="128.0" height="256" fill="white" stroke="#3a3a3a" stroke-width="2.5"/><rect x="152.0" y="24.0" width="80.0" height="95.0" fill="white" stroke="#3a3a3a" stroke-width="1.6"/><line x1="168.0" y1="24.0" x2="168.0" y2="119.0" stroke="#3a3a3a" stroke-width="1.6"/><line x1="184.0" y1="24.0" x2="184.0" y2="119.0" stroke="#3a3a3a" stroke-width="1.6"/><line x1="200.0" y1="24.0" x2="200.0" y2="119.0" stroke="#3a3a3a" stroke-width="1.6"/><line x1="216.0" y1="24.0" x2="216.0" y2="119.0" stroke="#3a3a3a" stroke-width="1.6"/><rect x="152.0" y="137.0" width="80.0" height="95.0" fill="white" stroke="#3a3a3a" stroke-width="1.6"/><line x1="168.0" y1="137.0" x2="168.0" y2="232.0" stroke="#3a3a3a" stroke-width="1.6"/><line x1="184.0" y1="137.0" x2="184.0" y2="232.0" stroke="#3a3a3a" stroke-width="1.6"/><line x1="200.0" y1="137.0" x2="200.0" y2="232.0" stroke="#3a3a3a" stroke-width="1.6"/><line x1="216.0" y1="137.0" x2="216.0" y2="232.0" stroke="#3a3a3a" stroke-width="1.6"/><rect x="251.5" y="31.4" width="6" height="14" fill="#3a3a3a"/><rect x="251.5" y="121.0" width="6" height="14" fill="#3a3a3a"/><rect x="251.5" y="210.6" width="6" height="14" fill="#3a3a3a"/><circle cx="140.0" cy="116.0" r="5" fill="white" stroke="#3a3a3a" stroke-width="1.6"/></svg>