<svg xmlns="http://www.w3.org/2000/svg" width="128" height="128" viewBox="0 0 128 128"><rect width="128" height="128" fill="white"/><line x1="0.0" y1="0.0" x2="128.0" y2="0.0" stroke="#3a3a3a" stroke-width="2.0"/><line x1="0.0" y1="128.0" x2="128.0" y2="128.0" stroke="#3a3a3a" stroke-width="2.0"/><line x1="0.0" y1="30.0" x2="128.0" y2="30.0" stroke="#3a3a3a" stroke-width="2.0"/><line x1="0.0" y1="56.0" x2="128.0" y2="56.0" stroke="#3a3a3a" stroke-width="2.0"/><line x1="0.0" y1="90.0" x2="128.0" y2="90.0" stroke="#3a3a3a" stroke-width="2.0"/><line x1="0.0" y1="114.0" x2="128.0" y2="114.0" stroke="#3a3a3a" stroke-width="2.0"/><line x1="26.1" y1="0.0" x2="26.1" y2="30.0" stroke="#3a3a3a" stroke-width="1.6"/><line x1="77.4" y1="0.0" x2="81.1" y2="30.0" stroke="#3a3a3a" stroke-width="1.6"/><line x1="83.0" y1="0.0" x2="101.5" y2="30.0" stroke="#3a3a3a" stroke-width="1.6"/><line x1="34.6" y1="30.0" x2="35.5" y2="56.0" stroke="#3a3a3a" stroke-width="1.6"/><line x1="82.5" y1="30.0" x2="82.9" y2="56.0" stroke="#3a3a3a" stroke-width="1.6"/><line x1="118.5" y1="30.0" x2="116.3" y2="56.0" stroke="#3a3a3a" stroke-width="1.6"/><line x1="47.4" y1="56.0" x2="47.4" y2="90.0" stroke="#3a3a3a" stroke-width="1.6"/><line x1="81.2" y1="56.0" x2="81.2" y2="90.0" stroke="#3a3a3a" stroke-width="1.6"/><line x1="111.8" y1="56.0" x2="111.8" y2="90.0" stroke="#3a3a3a" stroke-width="1.6"/><line x1="34.4" y1="90.0" x2="34.4" y2="114.0" stroke="#3a3a3a" stroke-width="1.6"/><line x1="66.7" y1="90.0" x2="66.7" y2="114.0" stroke="#3a3a3a" stroke-width="1.6"/><line x1="110.0" y1="90.0" x2="112.3" y2="114.0" stroke="#3a3a3a" stroke-width="1.6"/><line x1="41.7" y1="114.0" x2="41.7" y2="128.0" stroke="#3a3a3a" stroke-width="1.6"/><line x1="98.7" y1="114.0" x2="97.6" y2="128.0" stroke="#3a3a3a" stroke-width="1.6"/></svg>