<svg xmlns="http://www.w3.org/2000/svg" width="128" height="128" viewBox="0 0 128 128"><rect width="128" height="128" fill="white"/><line x1="0.0" y1="0.0" x2="128.0" y2="0.0" stroke="#3a3a3a" stroke-width="2.0"/><line x1="0.0" y1="128.0" x2="128.0" y2="128.0" stroke="#3a3a3a" stroke-width="2.0"/><line x1="0.0" y1="30.0" x2="128.0" y2="30.0" stroke="#3a3a3a" stroke-width="2.0"/><line x1="0.0" y1="56.0" x2="128.0" y2="56.0" stroke="#3a3a3a" stroke-width="2.0"/><line x1="0.0" y1="90.0" x2="128.0" y2="90.0" stroke="#3a3a3a" stroke-width="2.0"/><line x1="0.0" y1="114.0" x2="128.0" y2="114.0" stroke="#3a3a3a" stroke-width="2.0"/><line x1="56.0" y1="0.0" x2="56.6" y2="30.0" stroke="#3a3a3a" stroke-width="1.6"/><line x1="84.7" y1="0.0" x2="84.7" y2="30.0" stroke="#3a3a3a" stroke-width="1.6"/><line x1="56.0" y1="30.0" x2="56.0" y2="56.0" stroke="#3a3a3a" stroke-width="1.6"/><line x1="102.1" y1="30.0" x2="101.5" y2="56.0" stroke="#3a3a3a" stroke-width="1.6"/><line x1="29.0" y1="56.0" x2="30.0" y2="90.0" stroke="#3a3a3a" stroke-width="1.6"/><line x1="57.6" y1="56.0" x2="57.6" y2="90.0" stroke="#3a3a3a" stroke-width="1.6"/><line x1="114.6" y1="56.0" x2="114.6" y2="90.0" stroke="#3a3a3a" stroke-width="1.6"/><line x1="28.9" y1="90.0" x2="30.1" y2="114.0" stroke="#3a3a3a" stroke-width="1.6"/><line x1="80.4" y1="90.0" x2="80.4" y2="114.0" stroke="#3a3a3a" stroke-width="1.6"/><line x1="45.4" y1="114.0" x2="45.4" y2="128.0" stroke="#3a3a3a" stroke-width="1.6"/><line x1="83.1" y1="114.0" x2="83.1" y2="128.0" stroke="#3a3a3a" stroke-width="1.6"/></svg>