<svg xmlns="http://www.w3.org/2000/svg" width="128" height="128" viewBox="0 0 128 128"><rect width="128" height="128" fill="white"/><line x1="0.0" y1="0.0" x2="128.0" y2="0.0" stroke="#3a3a3a" stroke-width="2.0"/><line x1="0.0" y1="128.0" x2="128.0" y2="128.0" stroke="#3a3a3a" stroke-width="2.0"/><line x1="0.0" y1="30.0" x2="128.0" y2="30.0" stroke="#3a3a3a" stroke-width="2.0"/><line x1="0.0" y1="56.0" x2="128.0" y2="56.0" stroke="#3a3a3a" stroke-width="2.0"/><line x1="0.0" y1="90.0" x2="128.0" y2="90.0" stroke="#3a3a3a" stroke-width="2.0"/><line x1="0.0" y1="114.0" x2="128.0" y2="114.0" stroke="#3a3a3a" stroke-width="2.0"/><line x1="26.1" y1="0.0" x2="26.1" y2="30.0" stroke="#3a3a3a" stroke-width="1.6"/><line x1="77.4" y1="0.0" x2="81.1" y2="30.0" stroke="#3a3a3a" stroke-width="1.6"/><line x1="28.3" y1="30.0" x2="28.3" y2="56.0" stroke="#3a3a3a" stroke-width="1.6"/><line x1="73.7" y1="30.0" x2="72.3" y2="56.0" stroke="#3a3a3a" stroke-width="1.6"/><line x1="119.4" y1="30.0" x2="119.4" y2="56.0" stroke="#3a3a3a" stroke-width="1.6"/><line x1="43.5" y1="56.0" x2="39.8" y2="90.0" stroke="#3a3a3a" stroke-width="1.6"/><line x1="76.7" y1="56.0" x2="76.7" y2="90.0" stroke="#3a3a3a" stroke-width="1.6"/><line x1="47.4" y1="90.0" x2="47.4" y2="114.0" stroke="#3a3a3a" stroke-width="1.6"/><line x1="81.2" y1="90.0" x2="81.2" y2="114.0" stroke="#3a3a3a" stroke-width="1.6"/><line x1="111.8" y1="90.0" x2="111.8" y2="114.0" stroke="#3a3a3a" stroke-width="1.6"/><line x1="46.6" y1="114.0" x2="48.9" y2="128.0" stroke="#3a3a3a" stroke-width="1.6"/><line x1="78.8" y1="114.0" x2="78.8" y2="128.0" stroke="#3a3a3a" stroke-width="1.6"/></svg>