<svg xmlns="http://www.w3.org/2000/svg" width="128" height="128" viewBox="0 0 128 128"><rect width="128" height="128" fill="white"/><line x1="0.0" y1="0.0" x2="128.0" y2="0.0" stroke="#3a3a3a" stroke-width="2.0"/><line x1="0.0" y1="128.0" x2="128.0" y2="128.0" stroke="#3a3a3a" stroke-width="2.0"/><line x1="0.0" y1="30.0" x2="128.0" y2="30.0" stroke="#3a3a3a" stroke-width="2.0"/><line x1="0.0" y1="56.0" x2="128.0" y2="56.0" stroke="#3a3a3a" stroke-width="2.0"/><line x1="0.0" y1="90.0" x2="128.0" y2="90.0" stroke="#3a3a3a" stroke-width="2.0"/><line x1="0.0" y1="114.0" x2="128.0" y2="114.0" stroke="#3a3a3a" stroke-width="2.0"/><line x1="56.9" y1="0.0" x2="56.9" y2="30.0" stroke="#3a3a3a" stroke-width="1.6"/><line x1="105.3" y1="0.0" x2="105.3" y2="30.0" stroke="#3a3a3a" stroke-width="1.6"/><line x1="47.5" y1="30.0" x2="47.5" y2="56.0" stroke="#3a3a3a" stroke-width="1.6"/><line x1="83.8" y1="30.0" x2="85.6" y2="56.0" stroke="#3a3a3a" stroke-width="1.6"/><line x1="59.1" y1="30.0" x2="70.6" y2="56.0" stroke="#3a3a3a" stroke-width="1.6"/><line x1="46.4" y1="56.0" x2="42.5" y2="90.0" stroke="#3a3a3a" stroke-width="1.6"/><line x1="72.4" y1="56.0" x2="74.6" y2="90.0" stroke="#3a3a3a" stroke-width="1.6"/><line x1="114.8" y1="56.0" x2="114.8" y2="90.0" stroke="#3a3a3a" stroke-width="1.6"/><line x1="82.7" y1="56.0" x2="93.6" y2="90.0" stroke="#3a3a3a" stroke-width="1.6"/><line x1="30.2" y1="90.0" x2="32.7" y2="114.0" stroke="#3a3a3a" stroke-width="1.6"/><line x1="70.4" y1="90.0" x2="72.1" y2="114.0" stroke="#3a3a3a" stroke-width="1.6"/><line x1="110.1" y1="90.0" x2="111.0" y2="114.0" stroke="#3a3a3a" stroke-width="1.6"/><line x1="53.0" y1="90.0" x2="65.5" y2="114.0" stroke="#3a3a3a" stroke-width="1.6"/><line x1="44.0" y1="114.0" x2="43.9" y2="128.0" stroke="#3a3a3a" stroke-width="1.6"/><line x1="99.7" y1="114.0" x2="99.7" y2="128.0" stroke="#3a3a3a" stroke-width="1.6"/></svg>