<svg xmlns="http://www.w3.org/2000/svg" width="128" height="128" viewBox="0 0 128 128"><rect width="128" height="128" fill="white"/><line x1="0.0" y1="0.0" x2="128.0" y2="0.0" stroke="#3a3a3a" stroke-width="2.0"/><line x1="0.0" y1="128.0" x2="128.0" y2="128.0" stroke="#3a3a3a" stroke-width="2.0"/><line x1="0.0" y1="30.0" x2="128.0" y2="30.0" stroke="#3a3a3a" stroke-width="2.0"/><line x1="0.0" y1="56.0" x2="128.0" y2="56.0" stroke="#3a3a3a" stroke-width="2.0"/><line x1="0.0" y1="90.0" x2="128.0" y2="90.0" stroke="#3a3a3a" stroke-width="2.0"/><line x1="0.0" y1="114.0" x2="128.0" y2="114.0" stroke="#3a3a3a" stroke-width="2.0"/><line x1="57.1" y1="0.0" x2="58.9" y2="30.0" stroke="#3a3a3a" stroke-width="1.6"/><line x1="104.8" y1="0.0" x2="104.8" y2="30.0" stroke="#3a3a3a" stroke-width="1.6"/><line x1="27.6" y1="30.0" x2="27.6" y2="56.0" stroke="#3a3a3a" stroke-width="1.6"/><line x1="70.6" y1="30.0" x2="70.6" y2="56.0" stroke="#3a3a3a" stroke-width="1.6"/><line x1="102.5" y1="30.0" x2="102.5" y2="56.0" stroke="#3a3a3a" stroke-width="1.6"/><line x1="40.9" y1="56.0" x2="40.9" y2="90.0" stroke="#3a3a3a" stroke-width="1.6"/><line x1="86.3" y1="56.0" x2="86.3" y2="90.0" stroke="#3a3a3a" stroke-width="1.6"/><line x1="30.3" y1="90.0" x2="30.3" y2="114.0" stroke="#3a3a3a" stroke-width="1.6"/><line x1="57.1" y1="90.0" x2="57.1" y2="114.0" stroke="#3a3a3a" stroke-width="1.6"/><line x1="112.0" y1="90.0" x2="112.0" y2="114.0" stroke="#3a3a3a" stroke-width="1.6"/><line x1="31.7" y1="114.0" x2="31.9" y2="128.0" stroke="#3a3a3a" stroke-width="1.6"/><line x1="81.8" y1="114.0" x2="81.8" y2="128.0" stroke="#3a3a3a" stroke-width="1.6"/></svg>