<svg xmlns="http://www.w3.org/2000/svg" width="128" height="128" viewBox="0 0 128 128"><rect width="128" height="128" fill="white"/><line x1="0.0" y1="0.0" x2="128.0" y2="0.0" stroke="#3a3a3a" stroke-width="2.0"/><line x1="0.0" y1="128.0" x2="128.0" y2="128.0" stroke="#3a3a3a" stroke-width="2.0"/><line x1="0.0" y1="30.0" x2="128.0" y2="30.0" stroke="#3a3a3a" stroke-width="2.0"/><line x1="0.0" y1="56.0" x2="128.0" y2="56.0" stroke="#3a3a3a" stroke-width="2.0"/><line x1="0.0" y1="90.0" x2="128.0" y2="90.0" stroke="#3a3a3a" stroke-width="2.0"/><line x1="0.0" y1="114.0" x2="128.0" y2="114.0" stroke="#3a3a3a" stroke-width="2.0"/><line x1="52.3" y1="0.0" x2="54.3" y2="30.0" stroke="#3a3a3a" stroke-width="1.6"/><line x1="103.2" y1="0.0" x2="103.2" y2="30.0" stroke="#3a3a3a" stroke-width="1.6"/><line x1="45.2" y1="30.0" x2="45.2" y2="56.0" stroke="#3a3a3a" stroke-width="1.6"/><line x1="80.0" y1="30.0" x2="80.0" y2="56.0" stroke="#3a3a3a" stroke-width="1.6"/><line x1="115.2" y1="30.0" x2="118.6" y2="56.0" stroke="#3a3a3a" stroke-width="1.6"/><line x1="51.9" y1="30.0" x2="63.4" y2="56.0" stroke="#3a3a3a" stroke-width="1.6"/><line x1="26.6" y1="56.0" x2="26.6" y2="90.0" stroke="#3a3a3a" stroke-width="1.6"/><line x1="57.7" y1="56.0" x2="61.4" y2="90.0" stroke="#3a3a3a" stroke-width="1.6"/><line x1="109.0" y1="56.0" x2="109.0" y2="90.0" stroke="#3a3a3a" stroke-width="1.6"/><line x1="44.8" y1="90.0" x2="44.8" y2="114.0" stroke="#3a3a3a" stroke-width="1.6"/><line x1="71.2" y1="90.0" x2="70.9" y2="114.0" stroke="#3a3a3a" stroke-width="1.6"/><line x1="113.3" y1="90.0" x2="113.3" y2="114.0" stroke="#3a3a3a" stroke-width="1.6"/><line x1="42.3" y1="114.0" x2="42.3" y2="128.0" stroke="#3a3a3a" stroke-width="1.6"/><line x1="80.6" y1="114.0" x2="80.6" y2="128.0" stroke="#3a3a3a" stroke-width="1.6"/><line x1="105.4" y1="114.0" x2="118.2" y2="128.0" stroke="#3a3a3a" stroke-width="1.6"/></svg>