<svg xmlns="http://www.w3.org/2000/svg" width="128" height="128" viewBox="0 0 128 128"><rect width="128" height="128" fill="white"/><line x1="0.0" y1="0.0" x2="128.0" y2="0.0" stroke="#3a3a3a" stroke-width="2.0"/><line x1="0.0" y1="128.0" x2="128.0" y2="128.0" stroke="#3a3a3a" stroke-width="2.0"/><line x1="0.0" y1="30.0" x2="128.0" y2="30.0" stroke="#3a3a3a" stroke-width="2.0"/><line x1="0.0" y1="56.0" x2="128.0" y2="56.0" stroke="#3a3a3a" stroke-width="2.0"/><line x1="0.0" y1="90.0" x2="128.0" y2="90.0" stroke="#3a3a3a" stroke-width="2.0"/><line x1="0.0" y1="114.0" x2="128.0" y2="114.0" stroke="#3a3a3a" stroke-width="2.0"/><line x1="52.3" y1="0.0" x2="54.3" y2="30.0" stroke="#3a3a3a" stroke-width="1.6"/><line x1="103.2" y1="0.0" x2="103.2" y2="30.0" stroke="#3a3a3a" stroke-width="1.6"/><line x1="40.4" y1="30.0" x2="40.4" y2="56.0" stroke="#3a3a3a" stroke-width="1.6"/><line x1="98.3" y1="30.0" x2="102.1" y2="56.0" stroke="#3a3a3a" stroke-width="1.6"/><line x1="29.0" y1="56.0" x2="29.0" y2="90.0" stroke="#3a3a3a" stroke-width="1.6"/><line x1="67.4" y1="56.0" x2="66.3" y2="90.0" stroke="#3a3a3a" stroke-width="1.6"/><line x1="96.8" y1="56.0" x2="97.4" y2="90.0" stroke="#3a3a3a" stroke-width="1.6"/><line x1="36.0" y1="90.0" x2="36.0" y2="114.0" stroke="#3a3a3a" stroke-width="1.6"/><line x1="87.4" y1="90.0" x2="87.4" y2="114.0" stroke="#3a3a3a" stroke-width="1.6"/><line x1="53.4" y1="114.0" x2="53.4" y2="128.0" stroke="#3a3a3a" stroke-width="1.6"/><line x1="102.2" y1="114.0" x2="99.5" y2="128.0" stroke="#3a3a3a" stroke-width="1.6"/></svg>