<svg xmlns="http://www.w3.org/2000/svg" width="128" height="128" viewBox="0 0 128 128"><rect width="128" height="128" fill="white"/><line x1="0.0" y1="0.0" x2="128.0" y2="0.0" stroke="#3a3a3a" stroke-width="2.0"/><line x1="0.0" y1="128.0" x2="128.0" y2="128.0" stroke="#3a3a3a" stroke-width="2.0"/><line x1="0.0" y1="30.0" x2="128.0" y2="30.0" stroke="#3a3a3a" stroke-width="2.0"/><line x1="0.0" y1="56.0" x2="128.0" y2="56.0" stroke="#3a3a3a" stroke-width="2.0"/><line x1="0.0" y1="90.0" x2="128.0" y2="90.0" stroke="#3a3a3a" stroke-width="2.0"/><line x1="0.0" y1="114.0" x2="128.0" y2="114.0" stroke="#3a3a3a" stroke-width="2.0"/><line x1="56.0" y1="0.0" x2="56.6" y2="30.0" stroke="#3a3a3a" stroke-width="1.6"/><line x1="84.7" y1="0.0" x2="84.7" y2="30.0" stroke="#3a3a3a" stroke-width="1.6"/><line x1="41.9" y1="30.0" x2="41.9" y2="56.0" stroke="#3a3a3a" stroke-width="1.6"/><line x1="69.5" y1="30.0" x2="69.5" y2="56.0" stroke="#3a3a3a" stroke-width="1.6"/><line x1="117.8" y1="30.0" x2="114.2" y2="56.0" stroke="#3a3a3a" stroke-width="1.6"/><line x1="67.1" y1="30.0" x2="90.7" y2="56.0" stroke="#3a3a3a" stroke-width="1.6"/><line x1="52.7" y1="56.0" x2="52.7" y2="90.0" stroke="#3a3a3a" stroke-width="1.6"/><line x1="81.6" y1="56.0" x2="82.8" y2="90.0" stroke="#3a3a3a" stroke-width="1.6"/><line x1="42.1" y1="90.0" x2="42.1" y2="114.0" stroke="#3a3a3a" stroke-width="1.6"/><line x1="90.0" y1="90.0" x2="90.0" y2="114.0" stroke="#3a3a3a" stroke-width="1.6"/><line x1="31.0" y1="114.0" x2="31.0" y2="128.0" stroke="#3a3a3a" stroke-width="1.6"/><line x1="61.4" y1="114.0" x2="61.4" y2="128.0" stroke="#3a3a3a" stroke-width="1.6"/><line x1="87.8" y1="114.0" x2="87.8" y2="128.0" stroke="#3a3a3a" stroke-width="1.6"/></svg>