<svg xmlns="http://www.w3.org/2000/svg" width="128" height="128" viewBox="0 0 128 128"><rect width="128" height="128" fill="white"/><line x1="0.0" y1="0.0" x2="128.0" y2="0.0" stroke="#3a3a3a" stroke-width="2.0"/><line x1="0.0" y1="128.0" x2="128.0" y2="128.0" stroke="#3a3a3a" stroke-width="2.0"/><line x1="0.0" y1="30.0" x2="128.0" y2="30.0" stroke="#3a3a3a" stroke-width="2.0"/><line x1="0.0" y1="56.0" x2="128.0" y2="56.0" stroke="#3a3a3a" stroke-width="2.0"/><line x1="0.0" y1="90.0" x2="128.0" y2="90.0" stroke="#3a3a3a" stroke-width="2.0"/><line x1="0.0" y1="114.0" x2="128.0" y2="114.0" stroke="#3a3a3a" stroke-width="2.0"/><line x1="53.6" y1="0.0" x2="53.6" y2="30.0" stroke="#3a3a3a" stroke-width="1.6"/><line x1="104.5" y1="0.0" x2="103.3" y2="30.0" stroke="#3a3a3a" stroke-width="1.6"/><line x1="53.0" y1="30.0" x2="49.5" y2="56.0" stroke="#3a3a3a" stroke-width="1.6"/><line x1="85.8" y1="30.0" x2="85.8" y2="56.0" stroke="#3a3a3a" stroke-width="1.6"/><line x1="112.2" y1="30.0" x2="112.2" y2="56.0" stroke="#3a3a3a" stroke-width="1.6"/><line x1="41.4" y1="56.0" x2="41.4" y2="90.0" stroke="#3a3a3a" stroke-width="1.6"/><line x1="81.7" y1="56.0" x2="81.7" y2="90.0" stroke="#3a3a3a" stroke-width="1.6"/><line x1="117.8" y1="56.0" x2="117.8" y2="90.0" stroke="#3a3a3a" stroke-width="1.6"/><line x1="50.8" y1="90.0" x2="49.4" y2="114.0" stroke="#3a3a3a" stroke-width="1.6"/><line x1="105.0" y1="90.0" x2="105.0" y2="114.0" stroke="#3a3a3a" stroke-width="1.6"/><line x1="41.9" y1="114.0" x2="40.9" y2="128.0" stroke="#3a3a3a" stroke-width="1.6"/><line x1="76.2" y1="114.0" x2="76.2" y2="128.0" stroke="#3a3a3a" stroke-width="1.6"/><line x1="113.9" y1="114.0" x2="114.4" y2="128.0" stroke="#3a3a3a" stroke-width="1.6"/></svg>