<svg xmlns="http://www.w3.org/2000/svg" width="128" height="128" viewBox="0 0 128 128"><rect width="128" height="128" fill="white"/><line x1="0.0" y1="0.0" x2="128.0" y2="0.0" stroke="#3a3a3a" stroke-width="2.0"/><line x1="0.0" y1="128.0" x2="128.0" y2="128.0" stroke="#3a3a3a" stroke-width="2.0"/><line x1="0.0" y1="30.0" x2="128.0" y2="30.0" stroke="#3a3a3a" stroke-width="2.0"/><line x1="0.0" y1="56.0" x2="128.0" y2="56.0" stroke="#3a3a3a" stroke-width="2.0"/><line x1="0.0" y1="90.0" x2="128.0" y2="90.0" stroke="#3a3a3a" stroke-width="2.0"/><line x1="0.0" y1="114.0" x2="128.0" y2="114.0" stroke="#3a3a3a" stroke-width="2.0"/><line x1="36.4" y1="0.0" x2="36.4" y2="30.0" stroke="#3a3a3a" stroke-width="1.6"/><line x1="64.0" y1="0.0" x2="66.3" y2="30.0" stroke="#3a3a3a" stroke-width="1.6"/><line x1="115.4" y1="0.0" x2="115.4" y2="30.0" stroke="#3a3a3a" stroke-width="1.6"/><line x1="34.5" y1="30.0" x2="36.5" y2="56.0" stroke="#3a3a3a" stroke-width="1.6"/><line x1="86.0" y1="30.0" x2="86.0" y2="56.0" stroke="#3a3a3a" stroke-width="1.6"/><line x1="78.5" y1="30.0" x2="94.3" y2="56.0" stroke="#3a3a3a" stroke-width="1.6"/><line x1="30.6" y1="56.0" x2="30.6" y2="90.0" stroke="#3a3a3a" stroke-width="1.6"/><line x1="84.4" y1="56.0" x2="84.4" y2="90.0" stroke="#3a3a3a" stroke-width="1.6"/><line x1="39.0" y1="90.0" x2="39.0" y2="114.0" stroke="#3a3a3a" stroke-width="1.6"/><line x1="93.3" y1="90.0" x2="93.3" y2="114.0" stroke="#3a3a3a" stroke-width="1.6"/><line x1="36.3" y1="114.0" x2="36.3" y2="128.0" stroke="#3a3a3a" stroke-width="1.6"/><line x1="64.8" y1="114.0" x2="64.8" y2="128.0" stroke="#3a3a3a" stroke-width="1.6"/><line x1="108.7" y1="114.0" x2="105.1" y2="128.0" stroke="#3a3a3a" stroke-width="1.6"/></svg>