<svg xmlns="http://www.w3.org/2000/svg" width="128" height="128" viewBox="0 0 128 128"><rect width="128" height="128" fill="white"/><line x1="0.0" y1="0.0" x2="128.0" y2="0.0" stroke="#3a3a3a" stroke-width="2.0"/><line x1="0.0" y1="128.0" x2="128.0" y2="128.0" stroke="#3a3a3a" stroke-width="2.0"/><line x1="0.0" y1="8.0" x2="128.0" y2="8.0" stroke="#3a3a3a" stroke-width="1.2"/><line x1="0.0" y1="16.0" x2="128.0" y2="16.0" stroke="#3a3a3a" stroke-width="1.2"/><line x1="0.0" y1="24.0" x2="128.0" y2="24.0" stroke="#3a3a3a" stroke-width="1.2"/><line x1="0.0" y1="32.0" x2="128.0" y2="32.0" stroke="#3a3a3a" stroke-width="1.2"/><line x1="0.0" y1="40.0" x2="128.0" y2="40.0" stroke="#3a3a3a" stroke-width="1.2"/><line x1="0.0" y1="48.0" x2="128.0" y2="48.0" stroke="#3a3a3a" stroke-width="1.2"/><line x1="0.0" y1="56.0" x2="128.0" y2="56.0" stroke="#3a3a3a" stroke-width="1.2"/><line x1="0.0" y1="64.0" x2="128.0" y2="64.0" stroke="#3a3a3a" stroke-width="1.2"/><line x1="0.0" y1="72.0" x2="128.0" y2="72.0" stroke="#3a3a3a" stroke-width="1.2"/><line x1="0.0" y1="80.0" x2="128.0" y2="80.0" stroke="#3a3a3a" stroke-width="1.2"/><line x1="0.0" y1="88.0" x2="128.0" y2="88.0" stroke="#3a3a3a" stroke-width="1.2"/><line x1="0.0" y1="96.0" x2="128.0" y2="96.0" stroke="#3a3a3a" stroke-width="1.2"/><line x1="0.0" y1="104.0" x2="128.0" y2="104.0" stroke="#3a3a3a" stroke-width="1.2"/><line x1="0.0" y1="112.0" x2="128.0" y2="112.0" stroke="#3a3a3a" stroke-width="1.2"/><line x1="0.0" y1="120.0" x2="128.0" y2="120.0" stroke="#3a3a3a" stroke-width="1.2"/><line x1="27.2" y1="0.0" x2="27.2" y2="8.0" stroke="#3a3a3a" stroke-width="1.6"/><line x1="80.2" y1="8.0" x2="80.2" y2="16.0" stroke="#3a3a3a" stroke-width="1.6"/><line x1="87.8" y1="24.0" x2="87.8" y2="32.0" stroke="#3a3a3a" stroke-width="1.6"/><line x1="84.4" y1="32.0" x2="84.4" y2="40.0" stroke="#3a3a3a" stroke-width="1.6"/><line x1="69.2" y1="40.0" x2="69.2" y2="48.0" stroke="#3a3a3a" stroke-width="1.6"/><line x1="90.5" y1="48.0" x2="90.5" y2="56.0" stroke="#3a3a3a" stroke-width="1.6"/><line x1="35.9" y1="80.0" x2="35.9" y2="88.0" stroke="#3a3a3a" stroke-width="1.6"/><line x1="106.5" y1="96.0" x2="106.5" y2="104.0" stroke="#3a3a3a" stroke-width="1.6"/><line x1="54.3" y1="104.0" x2="54.3" y2="112.0" stroke="#3a3a3a" stroke-width="1.6"/><line x1="117.4" y1="120.0" x2="117.4" y2="128.0" stroke="#3a3a3a" stroke-width="1.6"/></svg>