<svg xmlns="http://www.w3.org/2000/svg" width="128" height="128" viewBox="0 0 128 128"><rect width="128" height="128" fill="white"/><line x1="0.0" y1="0.0" x2="128.0" y2="0.0" stroke="#3a3a3a" stroke-width="2.0"/><line x1="0.0" y1="128.0" x2="128.0" y2="128.0" stroke="#3a3a3a" stroke-width="2.0"/><line x1="0.0" y1="30.0" x2="128.0" y2="30.0" stroke="#3a3a3a" stroke-width="2.0"/><line x1="0.0" y1="56.0" x2="128.0" y2="56.0" stroke="#3a3a3a" stroke-width="2.0"/><line x1="0.0" y1="90.0" x2="128.0" y2="90.0" stroke="#3a3a3a" stroke-width="2.0"/><line x1="0.0" y1="114.0" x2="128.0" y2="114.0" stroke="#3a3a3a" stroke-width="2.0"/><line x1="36.4" y1="0.0" x2="36.4" y2="30.0" stroke="#3a3a3a" stroke-width="1.6"/><line x1="64.0" y1="0.0" x2="66.3" y2="30.0" stroke="#3a3a3a" stroke-width="1.6"/><line x1="115.4" y1="0.0" x2="115.4" y2="30.0" stroke="#3a3a3a" stroke-width="1.6"/><line x1="54.4" y1="30.0" x2="51.5" y2="56.0" stroke="#3a3a3a" stroke-width="1.6"/><line x1="104.2" y1="30.0" x2="104.2" y2="56.0" stroke="#3a3a3a" stroke-width="1.6"/><line x1="37.6" y1="56.0" x2="39.0" y2="90.0" stroke="#3a3a3a" stroke-width="1.6"/><line x1="76.8" y1="56.0" x2="75.8" y2="90.0" stroke="#3a3a3a" stroke-width="1.6"/><line x1="54.4" y1="90.0" x2="54.4" y2="114.0" stroke="#3a3a3a" stroke-width="1.6"/><line x1="106.4" y1="90.0" x2="106.4" y2="114.0" stroke="#3a3a3a" stroke-width="1.6"/><line x1="54.2" y1="114.0" x2="54.2" y2="128.0" stroke="#3a3a3a" stroke-width="1.6"/><line x1="93.7" y1="114.0" x2="93.7" y2="128.0" stroke="#3a3a3a" stroke-width="1.6"/></svg>