<svg xmlns="http://www.w3.org/2000/svg" width="128" height="128" viewBox="0 0 128 128"><rect width="128" height="128" fill="white"/><line x1="0.0" y1="0.0" x2="128.0" y2="0.0" stroke="#3a3a3a" stroke-width="2.0"/><line x1="0.0" y1="128.0" x2="128.0" y2="128.0" stroke="#3a3a3a" stroke-width="2.0"/><line x1="0.0" y1="30.0" x2="128.0" y2="30.0" stroke="#3a3a3a" stroke-width="2.0"/><line x1="0.0" y1="56.0" x2="128.0" y2="56.0" stroke="#3a3a3a" stroke-width="2.0"/><line x1="0.0" y1="90.0" x2="128.0" y2="90.0" stroke="#3a3a3a" stroke-width="2.0"/><line x1="0.0" y1="114.0" x2="128.0" y2="114.0" stroke="#3a3a3a" stroke-width="2.0"/><line x1="48.2" y1="0.0" x2="48.2" y2="30.0" stroke="#3a3a3a" stroke-width="1.6"/><line x1="101.3" y1="0.0" x2="100.3" y2="30.0" stroke="#3a3a3a" stroke-width="1.6"/><line x1="50.7" y1="30.0" x2="50.7" y2="56.0" stroke="#3a3a3a" stroke-width="1.6"/><line x1="77.9" y1="30.0" x2="77.9" y2="56.0" stroke="#3a3a3a" stroke-width="1.6"/><line x1="57.9" y1="56.0" x2="57.9" y2="90.0" stroke="#3a3a3a" stroke-width="1.6"/><line x1="90.2" y1="56.0" x2="93.7" y2="90.0" stroke="#3a3a3a" stroke-width="1.6"/><line x1="54.2" y1="90.0" x2="54.2" y2="114.0" stroke="#3a3a3a" stroke-width="1.6"/><line x1="91.7" y1="90.0" x2="93.3" y2="114.0" stroke="#3a3a3a" stroke-width="1.6"/><line x1="33.4" y1="114.0" x2="33.4" y2="128.0" stroke="#3a3a3a" stroke-width="1.6"/><line x1="79.8" y1="114.0" x2="79.8" y2="128.0" stroke="#3a3a3a" stroke-width="1.6"/><line x1="56.2" y1="114.0" x2="67.3" y2="128.0" stroke="#3a3a3a" stroke-width="1.6"/></svg>