<svg xmlns="http://www.w3.org/2000/svg" width="128" height="128" viewBox="0 0 128 128"><rect width="128" height="128" fill="white"/><line x1="0.0" y1="0.0" x2="128.0" y2="0.0" stroke="#3a3a3a" stroke-width="2.0"/><line x1="0.0" y1="128.0" x2="128.0" y2="128.0" stroke="#3a3a3a" stroke-width="2.0"/><line x1="0.0" y1="30.0" x2="128.0" y2="30.0" stroke="#3a3a3a" stroke-width="2.0"/><line x1="0.0" y1="56.0" x2="128.0" y2="56.0" stroke="#3a3a3a" stroke-width="2.0"/><line x1="0.0" y1="90.0" x2="128.0" y2="90.0" stroke="#3a3a3a" stroke-width="2.0"/><line x1="0.0" y1="114.0" x2="128.0" y2="114.0" stroke="#3a3a3a" stroke-width="2.0"/><line x1="48.2" y1="0.0" x2="48.2" y2="30.0" stroke="#3a3a3a" stroke-width="1.6"/><line x1="101.3" y1="0.0" x2="100.3" y2="30.0" stroke="#3a3a3a" stroke-width="1.6"/><line x1="43.5" y1="30.0" x2="43.5" y2="56.0" stroke="#3a3a3a" stroke-width="1.6"/><line x1="96.6" y1="30.0" x2="97.3" y2="56.0" stroke="#3a3a3a" stroke-width="1.6"/><line x1="40.0" y1="56.0" x2="40.0" y2="90.0" stroke="#3a3a3a" stroke-width="1.6"/><line x1="91.7" y1="56.0" x2="89.7" y2="90.0" stroke="#3a3a3a" stroke-width="1.6"/><line x1="48.3" y1="90.0" x2="48.3" y2="114.0" stroke="#3a3a3a" stroke-width="1.6"/><line x1="102.5" y1="90.0" x2="102.5" y2="114.0" stroke="#3a3a3a" stroke-width="1.6"/><line x1="30.5" y1="114.0" x2="30.5" y2="128.0" stroke="#3a3a3a" stroke-width="1.6"/><line x1="81.3" y1="114.0" x2="81.3" y2="128.0" stroke="#3a3a3a" stroke-width="1.6"/><line x1="114.7" y1="114.0" x2="114.7" y2="128.0" stroke="#3a3a3a" stroke-width="1.6"/></svg>