<svg xmlns="http://www.w3.org/2000/svg" width="128" height="128" viewBox="0 0 128 128"><rect width="128" height="128" fill="white"/><line x1="0.0" y1="0.0" x2="128.0" y2="0.0" stroke="#3a3a3a" stroke-width="2.0"/><line x1="0.0" y1="128.0" x2="128.0" y2="128.0" stroke="#3a3a3a" stroke-width="2.0"/><line x1="0.0" y1="30.0" x2="128.0" y2="30.0" stroke="#3a3a3a" stroke-width="2.0"/><line x1="0.0" y1="56.0" x2="128.0" y2="56.0" stroke="#3a3a3a" stroke-width="2.0"/><line x1="0.0" y1="90.0" x2="128.0" y2="90.0" stroke="#3a3a3a" stroke-width="2.0"/><line x1="0.0" y1="114.0" x2="128.0" y2="114.0" stroke="#3a3a3a" stroke-width="2.0"/><line x1="53.6" y1="0.0" x2="53.6" y2="30.0" stroke="#3a3a3a" stroke-width="1.6"/><line x1="104.5" y1="0.0" x2="103.3" y2="30.0" stroke="#3a3a3a" stroke-width="1.6"/><line x1="46.2" y1="30.0" x2="46.2" y2="56.0" stroke="#3a3a3a" stroke-width="1.6"/><line x1="76.6" y1="30.0" x2="74.3" y2="56.0" stroke="#3a3a3a" stroke-width="1.6"/><line x1="26.3" y1="56.0" x2="26.3" y2="90.0" stroke="#3a3a3a" stroke-width="1.6"/><line x1="60.3" y1="56.0" x2="60.3" y2="90.0" stroke="#3a3a3a" stroke-width="1.6"/><line x1="101.6" y1="56.0" x2="101.6" y2="90.0" stroke="#3a3a3a" stroke-width="1.6"/><line x1="55.3" y1="90.0" x2="54.7" y2="114.0" stroke="#3a3a3a" stroke-width="1.6"/><line x1="89.1" y1="90.0" x2="89.1" y2="114.0" stroke="#3a3a3a" stroke-width="1.6"/><line x1="35.5" y1="114.0" x2="38.6" y2="128.0" stroke="#3a3a3a" stroke-width="1.6"/><line x1="76.3" y1="114.0" x2="76.3" y2="128.0" stroke="#3a3a3a" stroke-width="1.6"/></svg>