<svg xmlns="http://www.w3.org/2000/svg" width="128" height="128" viewBox="0 0 128 128"><rect width="128" height="128" fill="white"/><line x1="0.0" y1="0.0" x2="128.0" y2="0.0" stroke="#3a3a3a" stroke-width="2.0"/><line x1="0.0" y1="128.0" x2="128.0" y2="128.0" stroke="#3a3a3a" stroke-width="2.0"/><line x1="0.0" y1="30.0" x2="128.0" y2="30.0" stroke="#3a3a3a" stroke-width="2.0"/><line x1="0.0" y1="56.0" x2="128.0" y2="56.0" stroke="#3a3a3a" stroke-width="2.0"/><line x1="0.0" y1="90.0" x2="128.0" y2="90.0" stroke="#3a3a3a" stroke-width="2.0"/><line x1="0.0" y1="114.0" x2="128.0" y2="114.0" stroke="#3a3a3a" stroke-width="2.0"/><line x1="56.9" y1="0.0" x2="56.9" y2="30.0" stroke="#3a3a3a" stroke-width="1.6"/><line x1="105.3" y1="0.0" x2="105.3" y2="30.0" stroke="#3a3a3a" stroke-width="1.6"/><line x1="38.5" y1="30.0" x2="38.5" y2="56.0" stroke="#3a3a3a" stroke-width="1.6"/><line x1="72.2" y1="30.0" x2="72.2" y2="56.0" stroke="#3a3a3a" stroke-width="1.6"/><line x1="108.5" y1="30.0" x2="110.3" y2="56.0" stroke="#3a3a3a" stroke-width="1.6"/><line x1="28.2" y1="56.0" x2="28.2" y2="90.0" stroke="#3a3a3a" stroke-width="1.6"/><line x1="57.6" y1="56.0" x2="57.6" y2="90.0" stroke="#3a3a3a" stroke-width="1.6"/><line x1="91.3" y1="56.0" x2="87.3" y2="90.0" stroke="#3a3a3a" stroke-width="1.6"/><line x1="50.8" y1="90.0" x2="50.8" y2="114.0" stroke="#3a3a3a" stroke-width="1.6"/><line x1="106.1" y1="90.0" x2="106.1" y2="114.0" stroke="#3a3a3a" stroke-width="1.6"/><line x1="48.8" y1="114.0" x2="45.9" y2="128.0" stroke="#3a3a3a" stroke-width="1.6"/><line x1="80.3" y1="114.0" x2="80.3" y2="128.0" stroke="#3a3a3a" stroke-width="1.6"/></svg>