<svg xmlns="http://www.w3.org/2000/svg" width="128" height="128" viewBox="0 0 128 128"><rect width="128" height="128" fill="white"/><line x1="0.0" y1="0.0" x2="128.0" y2="0.0" stroke="#3a3a3a" stroke-width="2.0"/><line x1="0.0" y1="128.0" x2="128.0" y2="128.0" stroke="#3a3a3a" stroke-width="2.0"/><line x1="0.0" y1="30.0" x2="128.0" y2="30.0" stroke="#3a3a3a" stroke-width="2.0"/><line x1="0.0" y1="56.0" x2="128.0" y2="56.0" stroke="#3a3a3a" stroke-width="2.0"/><line x1="0.0" y1="90.0" x2="128.0" y2="90.0" stroke="#3a3a3a" stroke-width="2.0"/><line x1="0.0" y1="114.0" x2="128.0" y2="114.0" stroke="#3a3a3a" stroke-width="2.0"/><line x1="57.1" y1="0.0" x2="58.9" y2="30.0" stroke="#3a3a3a" stroke-width="1.6"/><line x1="104.8" y1="0.0" x2="104.8" y2="30.0" stroke="#3a3a3a" stroke-width="1.6"/><line x1="93.1" y1="0.0" x2="110.5" y2="30.0" stroke="#3a3a3a" stroke-width="1.6"/><line x1="45.4" y1="30.0" x2="48.5" y2="56.0" stroke="#3a3a3a" stroke-width="1.6"/><line x1="75.7" y1="30.0" x2="75.7" y2="56.0" stroke="#3a3a3a" stroke-width="1.6"/><line x1="53.4" y1="56.0" x2="53.4" y2="90.0" stroke="#3a3a3a" stroke-width="1.6"/><line x1="83.7" y1="56.0" x2="83.7" y2="90.0" stroke="#3a3a3a" stroke-width="1.6"/><line x1="110.5" y1="56.0" x2="110.5" y2="90.0" stroke="#3a3a3a" stroke-width="1.6"/><line x1="35.4" y1="90.0" x2="31.9" y2="114.0" stroke="#3a3a3a" stroke-width="1.6"/><line x1="78.3" y1="90.0" x2="78.3" y2="114.0" stroke="#3a3a3a" stroke-width="1.6"/><line x1="31.6" y1="114.0" x2="33.6" y2="128.0" stroke="#3a3a3a" stroke-width="1.6"/><line x1="58.0" y1="114.0" x2="58.0" y2="128.0" stroke="#3a3a3a" stroke-width="1.6"/><line x1="115.0" y1="114.0" x2="115.0" y2="128.0" stroke="#3a3a3a" stroke-width="1.6"/></svg>