<svg xmlns="http://www.w3.org/2000/svg" width="128" height="128" viewBox="0 0 128 128"><rect width="128" height="128" fill="white"/><line x1="38.9" y1="36.8" x2="34.7" y2="28.3" stroke="#3a3a3a" stroke-width="1.2"/><line x1="38.9" y1="36.8" x2="38.9" y2="27.0" stroke="#3a3a3a" stroke-width="1.2"/><line x1="38.9" y1="36.8" x2="43.2" y2="29.5" stroke="#3a3a3a" stroke-width="1.2"/><line x1="109.6" y1="116.9" x2="105.4" y2="108.5" stroke="#3a3a3a" stroke-width="1.2"/><line x1="109.6" y1="116.9" x2="109.6" y2="107.3" stroke="#3a3a3a" stroke-width="1.2"/><line x1="109.6" y1="116.9" x2="113.8" y2="109.8" stroke="#3a3a3a" stroke-width="1.2"/><line x1="57.5" y1="64.1" x2="54.6" y2="58.4" stroke="#3a3a3a" stroke-width="1.2"/><line x1="57.5" y1="64.1" x2="57.5" y2="57.5" stroke="#3a3a3a" stroke-width="1.2"/><line x1="57.5" y1="64.1" x2="60.3" y2="59.2" stroke="#3a3a3a" stroke-width="1.2"/><line x1="38.7" y1="79.7" x2="34.4" y2="71.3" stroke="#3a3a3a" stroke-width="1.2"/><line x1="38.7" y1="79.7" x2="38.7" y2="70.0" stroke="#3a3a3a" stroke-width="1.2"/><line x1="38.7" y1="79.7" x2="42.9" y2="72.5" stroke="#3a3a3a" stroke-width="1.2"/><line x1="101.3" y1="68.3" x2="97.1" y2="59.9" stroke="#3a3a3a" stroke-width="1.2"/><line x1="101.3" y1="68.3" x2="101.3" y2="58.6" stroke="#3a3a3a" stroke-width="1.2"/><line x1="101.3" y1="68.3" x2="105.6" y2="61.1" stroke="#3a3a3a" stroke-width="1.2"/><line x1="52.6" y1="88.3" x2="48.9" y2="80.9" stroke="#3a3a3a" stroke-width="1.2"/><line x1="52.6" y1="88.3" x2="52.6" y2="79.8" stroke="#3a3a3a" stroke-width="1.2"/><line x1="52.6" y1="88.3" x2="56.3" y2="82.0" stroke="#3a3a3a" stroke-width="1.2"/><line x1="112.0" y1="15.6" x2="108.9" y2="9.4" stroke="#3a3a3a" stroke-width="1.2"/><line x1="112.0" y1="15.6" x2="112.0" y2="8.5" stroke="#3a3a3a" stroke-width="1.2"/><line x1="112.0" y1="15.6" x2="115.1" y2="10.3" stroke="#3a3a3a" stroke-width="1.2"/><line x1="12.5" y1="27.5" x2="9.7" y2="22.1" stroke="#3a3a3a" stroke-width="1.2"/><line x1="12.5" y1="27.5" x2="12.5" y2="21.2" stroke="#3a3a3a" stroke-width="1.2"/><line x1="12.5" y1="27.5" x2="15.2" y2="22.9" stroke="#3a3a3a" stroke-width="1.2"/><line x1="18.5" y1="36.6" x2="15.1" y2="29.9" stroke="#3a3a3a" stroke-width="1.2"/><line x1="18.5" y1="36.6" x2="18.5" y2="28.9" stroke="#3a3a3a" stroke-width="1.2"/><line x1="18.5" y1="36.6" x2="21.8" y2="30.9" stroke="#3a3a3a" stroke-width="1.2"/><line x1="26.4" y1="76.9" x2="22.1" y2="68.2" stroke="#3a3a3a" stroke-width="1.2"/><line x1="26.4" y1="76.9" x2="26.4" y2="66.8" stroke="#3a3a3a" stroke-width="1.2"/><line x1="26.4" y1="76.9" x2="30.8" y2="69.5" stroke="#3a3a3a" stroke-width="1.2"/><line x1="61.2" y1="111.4" x2="58.1" y2="105.2" stroke="#3a3a3a" stroke-width="1.2"/><line x1="61.2" y1="111.4" x2="61.2" y2="104.3" stroke="#3a3a3a" stroke-width="1.2"/><line x1="61.2" y1="111.4" x2="64.3" y2="106.1" stroke="#3a3a3a" stroke-width="1.2"/><line x1="35.5" y1="32.4" x2="31.6" y2="24.7" stroke="#3a3a3a" stroke-width="1.2"/><line x1="35.5" y1="32.4" x2="35.5" y2="23.5" stroke="#3a3a3a" stroke-width="1.2"/><line x1="35.5" y1="32.4" x2="39.3" y2="25.9" stroke="#3a3a3a" stroke-width="1.2"/><line x1="51.2" y1="11.7" x2="47.6" y2="4.5" stroke="#3a3a3a" stroke-width="1.2"/><line x1="51.2" y1="11.7" x2="51.2" y2="3.4" stroke="#3a3a3a" stroke-width="1.2"/><line x1="51.2" y1="11.7" x2="54.8" y2="5.6" stroke="#3a3a3a" stroke-width="1.2"/><line x1="119.2" y1="107.8" x2="115.7" y2="100.8" stroke="#3a3a3a" stroke-width="1.2"/><line x1="119.2" y1="107.8" x2="119.2" y2="99.7" stroke="#3a3a3a" stroke-width="1.2"/><line x1="119.2" y1="107.8" x2="122.7" y2="101.8" stroke="#3a3a3a" stroke-width="1.2"/><line x1="33.8" y1="18.5" x2="29.3" y2="9.6" stroke="#3a3a3a" stroke-width="1.2"/><line x1="33.8" y1="18.5" x2="33.8" y2="8.3" stroke="#3a3a3a" stroke-width="1.2"/><line x1="33.8" y1="18.5" x2="38.2" y2="10.9" stroke="#3a3a3a" stroke-width="1.2"/><line x1="41.1" y1="49.7" x2="37.9" y2="43.4" stroke="#3a3a3a" stroke-width="1.2"/><line x1="41.1" y1="49.7" x2="41.1" y2="42.5" stroke="#3a3a3a" stroke-width="1.2"/><line x1="41.1" y1="49.7" x2="44.2" y2="44.4" stroke="#3a3a3a" stroke-width="1.2"/><line x1="33.1" y1="89.3" x2="29.4" y2="82.1" stroke="#3a3a3a" stroke-width="1.2"/><line x1="33.1" y1="89.3" x2="33.1" y2="81.1" stroke="#3a3a3a" stroke-width="1.2"/><line x1="33.1" y1="89.3" x2="36.7" y2="83.2" stroke="#3a3a3a" stroke-width="1.2"/><line x1="66.0" y1="33.1" x2="61.6" y2="24.3" stroke="#3a3a3a" stroke-width="1.2"/><line x1="66.0" y1="33.1" x2="66.0" y2="23.0" stroke="#3a3a3a" stroke-width="1.2"/><line x1="66.0" y1="33.1" x2="70.4" y2="25.6" stroke="#3a3a3a" stroke-width="1.2"/><line x1="109.8" y1="118.4" x2="107.1" y2="113.0" stroke="#3a3a3a" stroke-width="1.2"/><line x1="109.8" y1="118.4" x2="109.8" y2="112.2" stroke="#3a3a3a" stroke-width="1.2"/><line x1="109.8" y1="118.4" x2="112.5" y2="113.8" stroke="#3a3a3a" stroke-width="1.2"/><line x1="109.4" y1="45.3" x2="106.8" y2="40.2" stroke="#3a3a3a" stroke-width="1.2"/><line x1="109.4" y1="45.3" x2="109.4" y2="39.4" stroke="#3a3a3a" stroke-width="1.2"/><line x1="109.4" y1="45.3" x2="111.9" y2="40.9" stroke="#3a3a3a" stroke-width="1.2"/><line x1="43.9" y1="45.3" x2="40.6" y2="38.7" stroke="#3a3a3a" stroke-width="1.2"/><line x1="43.9" y1="45.3" x2="43.9" y2="37.7" stroke="#3a3a3a" stroke-width="1.2"/><line x1="43.9" y1="45.3" x2="47.2" y2="39.7" stroke="#3a3a3a" stroke-width="1.2"/><line x1="72.6" y1="87.1" x2="69.4" y2="80.7" stroke="#3a3a3a" stroke-width="1.2"/><line x1="72.6" y1="87.1" x2="72.6" y2="79.7" stroke="#3a3a3a" stroke-width="1.2"/><line x1="72.6" y1="87.1" x2="75.8" y2="81.7" stroke="#3a3a3a" stroke-width="1.2"/><line x1="117.0" y1="99.0" x2="113.1" y2="91.1" stroke="#3a3a3a" stroke-width="1.2"/><line x1="117.0" y1="99.0" x2="117.0" y2="89.9" stroke="#3a3a3a" stroke-width="1.2"/><line x1="117.0" y1="99.0" x2="121.0" y2="92.3" stroke="#3a3a3a" stroke-width="1.2"/><line x1="67.2" y1="59.0" x2="63.4" y2="51.3" stroke="#3a3a3a" stroke-width="1.2"/><line x1="67.2" y1="59.0" x2="67.2" y2="50.1" stroke="#3a3a3a" stroke-width="1.2"/><line x1="67.2" y1="59.0" x2="71.0" y2="52.4" stroke="#3a3a3a" stroke-width="1.2"/><line x1="52.2" y1="17.1" x2="49.0" y2="10.8" stroke="#3a3a3a" stroke-width="1.2"/><line x1="52.2" y1="17.1" x2="52.2" y2="9.8" stroke="#3a3a3a" stroke-width="1.2"/><line x1="52.2" y1="17.1" x2="55.4" y2="11.7" stroke="#3a3a3a" stroke-width="1.2"/><line x1="93.3" y1="105.5" x2="89.8" y2="98.5" stroke="#3a3a3a" stroke-width="1.2"/><line x1="93.3" y1="105.5" x2="93.3" y2="97.4" stroke="#3a3a3a" stroke-width="1.2"/><line x1="93.3" y1="105.5" x2="96.8" y2="99.5" stroke="#3a3a3a" stroke-width="1.2"/></svg>