<svg xmlns="http://www.w3.org/2000/svg" width="128" height="128" viewBox="0 0 128 128"><rect width="128" height="128" fill="white"/><line x1="67.8" y1="40.1" x2="63.8" y2="32.2" stroke="#3a3a3a" stroke-width="1.2"/><line x1="67.8" y1="40.1" x2="67.8" y2="31.0" stroke="#3a3a3a" stroke-width="1.2"/><line x1="67.8" y1="40.1" x2="71.8" y2="33.3" stroke="#3a3a3a" stroke-width="1.2"/><line x1="55.0" y1="71.5" x2="50.7" y2="63.0" stroke="#3a3a3a" stroke-width="1.2"/><line x1="55.0" y1="71.5" x2="55.0" y2="61.7" stroke="#3a3a3a" stroke-width="1.2"/><line x1="55.0" y1="71.5" x2="59.2" y2="64.3" stroke="#3a3a3a" stroke-width="1.2"/><line x1="109.1" y1="26.7" x2="106.4" y2="21.4" stroke="#3a3a3a" stroke-width="1.2"/><line x1="109.1" y1="26.7" x2="109.1" y2="20.6" stroke="#3a3a3a" stroke-width="1.2"/><line x1="109.1" y1="26.7" x2="111.8" y2="22.2" stroke="#3a3a3a" stroke-width="1.2"/><line x1="56.5" y1="75.4" x2="53.6" y2="69.6" stroke="#3a3a3a" stroke-width="1.2"/><line x1="56.5" y1="75.4" x2="56.5" y2="68.7" stroke="#3a3a3a" stroke-width="1.2"/><line x1="56.5" y1="75.4" x2="59.4" y2="70.4" stroke="#3a3a3a" stroke-width="1.2"/><line x1="48.1" y1="31.2" x2="44.5" y2="24.0" stroke="#3a3a3a" stroke-width="1.2"/><line x1="48.1" y1="31.2" x2="48.1" y2="22.9" stroke="#3a3a3a" stroke-width="1.2"/><line x1="48.1" y1="31.2" x2="51.8" y2="25.0" stroke="#3a3a3a" stroke-width="1.2"/><line x1="75.9" y1="52.4" x2="72.0" y2="44.7" stroke="#3a3a3a" stroke-width="1.2"/><line x1="75.9" y1="52.4" x2="75.9" y2="43.5" stroke="#3a3a3a" stroke-width="1.2"/><line x1="75.9" y1="52.4" x2="79.8" y2="45.8" stroke="#3a3a3a" stroke-width="1.2"/><line x1="50.5" y1="15.9" x2="46.7" y2="8.3" stroke="#3a3a3a" stroke-width="1.2"/><line x1="50.5" y1="15.9" x2="50.5" y2="7.1" stroke="#3a3a3a" stroke-width="1.2"/><line x1="50.5" y1="15.9" x2="54.3" y2="9.4" stroke="#3a3a3a" stroke-width="1.2"/><line x1="83.5" y1="118.7" x2="80.8" y2="113.1" stroke="#3a3a3a" stroke-width="1.2"/><line x1="83.5" y1="118.7" x2="83.5" y2="112.3" stroke="#3a3a3a" stroke-width="1.2"/><line x1="83.5" y1="118.7" x2="86.3" y2="114.0" stroke="#3a3a3a" stroke-width="1.2"/><line x1="64.6" y1="97.7" x2="60.2" y2="88.8" stroke="#3a3a3a" stroke-width="1.2"/><line x1="64.6" y1="97.7" x2="64.6" y2="87.5" stroke="#3a3a3a" stroke-width="1.2"/><line x1="64.6" y1="97.7" x2="69.1" y2="90.2" stroke="#3a3a3a" stroke-width="1.2"/><line x1="52.0" y1="84.7" x2="48.6" y2="77.9" stroke="#3a3a3a" stroke-width="1.2"/><line x1="52.0" y1="84.7" x2="52.0" y2="76.8" stroke="#3a3a3a" stroke-width="1.2"/><line x1="52.0" y1="84.7" x2="55.4" y2="78.9" stroke="#3a3a3a" stroke-width="1.2"/><line x1="115.4" y1="65.1" x2="111.3" y2="57.0" stroke="#3a3a3a" stroke-width="1.2"/><line x1="115.4" y1="65.1" x2="115.4" y2="55.8" stroke="#3a3a3a" stroke-width="1.2"/><line x1="115.4" y1="65.1" x2="119.5" y2="58.2" stroke="#3a3a3a" stroke-width="1.2"/><line x1="19.9" y1="31.3" x2="16.5" y2="24.5" stroke="#3a3a3a" stroke-width="1.2"/><line x1="19.9" y1="31.3" x2="19.9" y2="23.5" stroke="#3a3a3a" stroke-width="1.2"/><line x1="19.9" y1="31.3" x2="23.3" y2="25.5" stroke="#3a3a3a" stroke-width="1.2"/><line x1="91.1" y1="59.6" x2="88.2" y2="53.9" stroke="#3a3a3a" stroke-width="1.2"/><line x1="91.1" y1="59.6" x2="91.1" y2="53.1" stroke="#3a3a3a" stroke-width="1.2"/><line x1="91.1" y1="59.6" x2="93.9" y2="54.8" stroke="#3a3a3a" stroke-width="1.2"/><line x1="109.6" y1="17.0" x2="105.6" y2="9.0" stroke="#3a3a3a" stroke-width="1.2"/><line x1="109.6" y1="17.0" x2="109.6" y2="7.7" stroke="#3a3a3a" stroke-width="1.2"/><line x1="109.6" y1="17.0" x2="113.6" y2="10.2" stroke="#3a3a3a" stroke-width="1.2"/><line x1="87.3" y1="53.8" x2="82.9" y2="45.0" stroke="#3a3a3a" stroke-width="1.2"/><line x1="87.3" y1="53.8" x2="87.3" y2="43.7" stroke="#3a3a3a" stroke-width="1.2"/><line x1="87.3" y1="53.8" x2="91.7" y2="46.3" stroke="#3a3a3a" stroke-width="1.2"/><line x1="51.7" y1="91.8" x2="47.9" y2="84.2" stroke="#3a3a3a" stroke-width="1.2"/><line x1="51.7" y1="91.8" x2="51.7" y2="83.1" stroke="#3a3a3a" stroke-width="1.2"/><line x1="51.7" y1="91.8" x2="55.4" y2="85.4" stroke="#3a3a3a" stroke-width="1.2"/><line x1="108.7" y1="34.0" x2="105.7" y2="28.0" stroke="#3a3a3a" stroke-width="1.2"/><line x1="108.7" y1="34.0" x2="108.7" y2="27.1" stroke="#3a3a3a" stroke-width="1.2"/><line x1="108.7" y1="34.0" x2="111.7" y2="28.9" stroke="#3a3a3a" stroke-width="1.2"/><line x1="95.6" y1="35.8" x2="92.0" y2="28.5" stroke="#3a3a3a" stroke-width="1.2"/><line x1="95.6" y1="35.8" x2="95.6" y2="27.4" stroke="#3a3a3a" stroke-width="1.2"/><line x1="95.6" y1="35.8" x2="99.2" y2="29.6" stroke="#3a3a3a" stroke-width="1.2"/><line x1="50.4" y1="69.8" x2="47.1" y2="63.2" stroke="#3a3a3a" stroke-width="1.2"/><line x1="50.4" y1="69.8" x2="50.4" y2="62.2" stroke="#3a3a3a" stroke-width="1.2"/><line x1="50.4" y1="69.8" x2="53.7" y2="64.2" stroke="#3a3a3a" stroke-width="1.2"/><line x1="13.5" y1="17.3" x2="10.3" y2="11.0" stroke="#3a3a3a" stroke-width="1.2"/><line x1="13.5" y1="17.3" x2="13.5" y2="10.0" stroke="#3a3a3a" stroke-width="1.2"/><line x1="13.5" y1="17.3" x2="16.7" y2="11.9" stroke="#3a3a3a" stroke-width="1.2"/><line x1="91.9" y1="87.3" x2="87.4" y2="78.3" stroke="#3a3a3a" stroke-width="1.2"/><line x1="91.9" y1="87.3" x2="91.9" y2="77.0" stroke="#3a3a3a" stroke-width="1.2"/><line x1="91.9" y1="87.3" x2="96.4" y2="79.7" stroke="#3a3a3a" stroke-width="1.2"/><line x1="119.4" y1="10.1" x2="116.9" y2="5.1" stroke="#3a3a3a" stroke-width="1.2"/><line x1="119.4" y1="10.1" x2="119.4" y2="4.3" stroke="#3a3a3a" stroke-width="1.2"/><line x1="119.4" y1="10.1" x2="122.0" y2="5.8" stroke="#3a3a3a" stroke-width="1.2"/><line x1="108.0" y1="17.7" x2="105.4" y2="12.4" stroke="#3a3a3a" stroke-width="1.2"/><line x1="108.0" y1="17.7" x2="108.0" y2="11.6" stroke="#3a3a3a" stroke-width="1.2"/><line x1="108.0" y1="17.7" x2="110.7" y2="13.2" stroke="#3a3a3a" stroke-width="1.2"/><line x1="101.0" y1="12.3" x2="96.9" y2="4.1" stroke="#3a3a3a" stroke-width="1.2"/><line x1="101.0" y1="12.3" x2="101.0" y2="2.8" stroke="#3a3a3a" stroke-width="1.2"/><line x1="101.0" y1="12.3" x2="105.1" y2="5.3" stroke="#3a3a3a" stroke-width="1.2"/><line x1="82.9" y1="46.1" x2="79.0" y2="38.3" stroke="#3a3a3a" stroke-width="1.2"/><line x1="82.9" y1="46.1" x2="82.9" y2="37.1" stroke="#3a3a3a" stroke-width="1.2"/><line x1="82.9" y1="46.1" x2="86.8" y2="39.5" stroke="#3a3a3a" stroke-width="1.2"/><line x1="39.0" y1="77.5" x2="35.9" y2="71.3" stroke="#3a3a3a" stroke-width="1.2"/><line x1="39.0" y1="77.5" x2="39.0" y2="70.4" stroke="#3a3a3a" stroke-width="1.2"/><line x1="39.0" y1="77.5" x2="42.1" y2="72.2" stroke="#3a3a3a" stroke-width="1.2"/></svg>