<svg xmlns="http://www.w3.org/2000/svg" width="128" height="128" viewBox="0 0 128 128"><rect width="128" height="128" fill="white"/><line x1="82.7" y1="29.8" x2="78.3" y2="20.9" stroke="#3a3a3a" stroke-width="1.2"/><line x1="82.7" y1="29.8" x2="82.7" y2="19.5" stroke="#3a3a3a" stroke-width="1.2"/><line x1="82.7" y1="29.8" x2="87.2" y2="22.2" stroke="#3a3a3a" stroke-width="1.2"/><line x1="102.0" y1="68.5" x2="98.9" y2="62.4" stroke="#3a3a3a" stroke-width="1.2"/><line x1="102.0" y1="68.5" x2="102.0" y2="61.4" stroke="#3a3a3a" stroke-width="1.2"/><line x1="102.0" y1="68.5" x2="105.1" y2="63.3" stroke="#3a3a3a" stroke-width="1.2"/><line x1="41.1" y1="42.8" x2="38.4" y2="37.3" stroke="#3a3a3a" stroke-width="1.2"/><line x1="41.1" y1="42.8" x2="41.1" y2="36.5" stroke="#3a3a3a" stroke-width="1.2"/><line x1="41.1" y1="42.8" x2="43.8" y2="38.1" stroke="#3a3a3a" stroke-width="1.2"/><line x1="86.0" y1="43.7" x2="81.6" y2="34.8" stroke="#3a3a3a" stroke-width="1.2"/><line x1="86.0" y1="43.7" x2="86.0" y2="33.5" stroke="#3a3a3a" stroke-width="1.2"/><line x1="86.0" y1="43.7" x2="90.4" y2="36.2" stroke="#3a3a3a" stroke-width="1.2"/><line x1="117.8" y1="81.4" x2="115.1" y2="76.0" stroke="#3a3a3a" stroke-width="1.2"/><line x1="117.8" y1="81.4" x2="117.8" y2="75.2" stroke="#3a3a3a" stroke-width="1.2"/><line x1="117.8" y1="81.4" x2="120.4" y2="76.8" stroke="#3a3a3a" stroke-width="1.2"/><line x1="33.7" y1="57.5" x2="29.3" y2="48.7" stroke="#3a3a3a" stroke-width="1.2"/><line x1="33.7" y1="57.5" x2="33.7" y2="47.4" stroke="#3a3a3a" stroke-width="1.2"/><line x1="33.7" y1="57.5" x2="38.0" y2="50.1" stroke="#3a3a3a" stroke-width="1.2"/><line x1="115.1" y1="112.5" x2="112.3" y2="107.0" stroke="#3a3a3a" stroke-width="1.2"/><line x1="115.1" y1="112.5" x2="115.1" y2="106.2" stroke="#3a3a3a" stroke-width="1.2"/><line x1="115.1" y1="112.5" x2="117.8" y2="107.8" stroke="#3a3a3a" stroke-width="1.2"/><line x1="15.3" y1="49.7" x2="10.9" y2="41.0" stroke="#3a3a3a" stroke-width="1.2"/><line x1="15.3" y1="49.7" x2="15.3" y2="39.7" stroke="#3a3a3a" stroke-width="1.2"/><line x1="15.3" y1="49.7" x2="19.7" y2="42.3" stroke="#3a3a3a" stroke-width="1.2"/><line x1="42.2" y1="78.8" x2="38.8" y2="72.0" stroke="#3a3a3a" stroke-width="1.2"/><line x1="42.2" y1="78.8" x2="42.2" y2="71.0" stroke="#3a3a3a" stroke-width="1.2"/><line x1="42.2" y1="78.8" x2="45.6" y2="73.0" stroke="#3a3a3a" stroke-width="1.2"/><line x1="85.6" y1="30.3" x2="83.0" y2="25.1" stroke="#3a3a3a" stroke-width="1.2"/><line x1="85.6" y1="30.3" x2="85.6" y2="24.3" stroke="#3a3a3a" stroke-width="1.2"/><line x1="85.6" y1="30.3" x2="88.2" y2="25.8" stroke="#3a3a3a" stroke-width="1.2"/><line x1="57.3" y1="57.8" x2="53.5" y2="50.2" stroke="#3a3a3a" stroke-width="1.2"/><line x1="57.3" y1="57.8" x2="57.3" y2="49.1" stroke="#3a3a3a" stroke-width="1.2"/><line x1="57.3" y1="57.8" x2="61.1" y2="51.4" stroke="#3a3a3a" stroke-width="1.2"/><line x1="96.2" y1="23.0" x2="93.5" y2="17.6" stroke="#3a3a3a" stroke-width="1.2"/><line x1="96.2" y1="23.0" x2="96.2" y2="16.8" stroke="#3a3a3a" stroke-width="1.2"/><line x1="96.2" y1="23.0" x2="98.9" y2="18.4" stroke="#3a3a3a" stroke-width="1.2"/><line x1="110.2" y1="66.9" x2="107.2" y2="60.8" stroke="#3a3a3a" stroke-width="1.2"/><line x1="110.2" y1="66.9" x2="110.2" y2="59.9" stroke="#3a3a3a" stroke-width="1.2"/><line x1="110.2" y1="66.9" x2="113.3" y2="61.7" stroke="#3a3a3a" stroke-width="1.2"/><line x1="101.3" y1="47.1" x2="97.9" y2="40.2" stroke="#3a3a3a" stroke-width="1.2"/><line x1="101.3" y1="47.1" x2="101.3" y2="39.1" stroke="#3a3a3a" stroke-width="1.2"/><line x1="101.3" y1="47.1" x2="104.7" y2="41.2" stroke="#3a3a3a" stroke-width="1.2"/><line x1="8.4" y1="87.6" x2="4.0" y2="78.8" stroke="#3a3a3a" stroke-width="1.2"/><line x1="8.4" y1="87.6" x2="8.4" y2="77.5" stroke="#3a3a3a" stroke-width="1.2"/><line x1="8.4" y1="87.6" x2="12.8" y2="80.1" stroke="#3a3a3a" stroke-width="1.2"/><line x1="27.7" y1="80.0" x2="23.6" y2="71.8" stroke="#3a3a3a" stroke-width="1.2"/><line x1="27.7" y1="80.0" x2="27.7" y2="70.6" stroke="#3a3a3a" stroke-width="1.2"/><line x1="27.7" y1="80.0" x2="31.9" y2="73.0" stroke="#3a3a3a" stroke-width="1.2"/><line x1="46.3" y1="17.8" x2="43.6" y2="12.4" stroke="#3a3a3a" stroke-width="1.2"/><line x1="46.3" y1="17.8" x2="46.3" y2="11.6" stroke="#3a3a3a" stroke-width="1.2"/><line x1="46.3" y1="17.8" x2="49.0" y2="13.2" stroke="#3a3a3a" stroke-width="1.2"/><line x1="114.8" y1="106.6" x2="111.6" y2="100.3" stroke="#3a3a3a" stroke-width="1.2"/><line x1="114.8" y1="106.6" x2="114.8" y2="99.3" stroke="#3a3a3a" stroke-width="1.2"/><line x1="114.8" y1="106.6" x2="118.0" y2="101.2" stroke="#3a3a3a" stroke-width="1.2"/><line x1="90.8" y1="37.2" x2="87.6" y2="30.9" stroke="#3a3a3a" stroke-width="1.2"/><line x1="90.8" y1="37.2" x2="90.8" y2="30.0" stroke="#3a3a3a" stroke-width="1.2"/><line x1="90.8" y1="37.2" x2="93.9" y2="31.8" stroke="#3a3a3a" stroke-width="1.2"/><line x1="95.2" y1="60.4" x2="90.7" y2="51.5" stroke="#3a3a3a" stroke-width="1.2"/><line x1="95.2" y1="60.4" x2="95.2" y2="50.2" stroke="#3a3a3a" stroke-width="1.2"/><line x1="95.2" y1="60.4" x2="99.6" y2="52.8" stroke="#3a3a3a" stroke-width="1.2"/><line x1="39.5" y1="36.8" x2="35.3" y2="28.3" stroke="#3a3a3a" stroke-width="1.2"/><line x1="39.5" y1="36.8" x2="39.5" y2="27.0" stroke="#3a3a3a" stroke-width="1.2"/><line x1="39.5" y1="36.8" x2="43.8" y2="29.6" stroke="#3a3a3a" stroke-width="1.2"/><line x1="33.0" y1="89.6" x2="30.2" y2="84.0" stroke="#3a3a3a" stroke-width="1.2"/><line x1="33.0" y1="89.6" x2="33.0" y2="83.1" stroke="#3a3a3a" stroke-width="1.2"/><line x1="33.0" y1="89.6" x2="35.9" y2="84.8" stroke="#3a3a3a" stroke-width="1.2"/><line x1="108.5" y1="38.3" x2="105.5" y2="32.2" stroke="#3a3a3a" stroke-width="1.2"/><line x1="108.5" y1="38.3" x2="108.5" y2="31.3" stroke="#3a3a3a" stroke-width="1.2"/><line x1="108.5" y1="38.3" x2="111.6" y2="33.1" stroke="#3a3a3a" stroke-width="1.2"/><line x1="94.3" y1="108.6" x2="90.4" y2="100.7" stroke="#3a3a3a" stroke-width="1.2"/><line x1="94.3" y1="108.6" x2="94.3" y2="99.5" stroke="#3a3a3a" stroke-width="1.2"/><line x1="94.3" y1="108.6" x2="98.2" y2="101.9" stroke="#3a3a3a" stroke-width="1.2"/><line x1="86.6" y1="74.4" x2="82.8" y2="66.8" stroke="#3a3a3a" stroke-width="1.2"/><line x1="86.6" y1="74.4" x2="86.6" y2="65.7" stroke="#3a3a3a" stroke-width="1.2"/><line x1="86.6" y1="74.4" x2="90.4" y2="68.0" stroke="#3a3a3a" stroke-width="1.2"/><line x1="45.1" y1="82.1" x2="42.0" y2="75.9" stroke="#3a3a3a" stroke-width="1.2"/><line x1="45.1" y1="82.1" x2="45.1" y2="75.0" stroke="#3a3a3a" stroke-width="1.2"/><line x1="45.1" y1="82.1" x2="48.2" y2="76.9" stroke="#3a3a3a" stroke-width="1.2"/></svg>