<svg xmlns="http://www.w3.org/2000/svg" width="128" height="128" viewBox="0 0 128 128"><rect width="128" height="128" fill="white"/><line x1="33.0" y1="89.1" x2="29.0" y2="81.2" stroke="#3a3a3a" stroke-width="1.2"/><line x1="33.0" y1="89.1" x2="33.0" y2="80.0" stroke="#3a3a3a" stroke-width="1.2"/><line x1="33.0" y1="89.1" x2="37.0" y2="82.4" stroke="#3a3a3a" stroke-width="1.2"/><line x1="77.9" y1="28.8" x2="75.2" y2="23.4" stroke="#3a3a3a" stroke-width="1.2"/><line x1="77.9" y1="28.8" x2="77.9" y2="22.6" stroke="#3a3a3a" stroke-width="1.2"/><line x1="77.9" y1="28.8" x2="80.6" y2="24.2" stroke="#3a3a3a" stroke-width="1.2"/><line x1="25.5" y1="59.2" x2="21.0" y2="50.2" stroke="#3a3a3a" stroke-width="1.2"/><line x1="25.5" y1="59.2" x2="25.5" y2="48.8" stroke="#3a3a3a" stroke-width="1.2"/><line x1="25.5" y1="59.2" x2="30.0" y2="51.5" stroke="#3a3a3a" stroke-width="1.2"/><line x1="106.4" y1="103.9" x2="103.0" y2="97.1" stroke="#3a3a3a" stroke-width="1.2"/><line x1="106.4" y1="103.9" x2="106.4" y2="96.1" stroke="#3a3a3a" stroke-width="1.2"/><line x1="106.4" y1="103.9" x2="109.8" y2="98.1" stroke="#3a3a3a" stroke-width="1.2"/><line x1="64.0" y1="104.7" x2="61.3" y2="99.1" stroke="#3a3a3a" stroke-width="1.2"/><line x1="64.0" y1="104.7" x2="64.0" y2="98.3" stroke="#3a3a3a" stroke-width="1.2"/><line x1="64.0" y1="104.7" x2="66.8" y2="99.9" stroke="#3a3a3a" stroke-width="1.2"/><line x1="13.4" y1="29.5" x2="10.8" y2="24.3" stroke="#3a3a3a" stroke-width="1.2"/><line x1="13.4" y1="29.5" x2="13.4" y2="23.5" stroke="#3a3a3a" stroke-width="1.2"/><line x1="13.4" y1="29.5" x2="16.1" y2="25.1" stroke="#3a3a3a" stroke-width="1.2"/><line x1="98.2" y1="62.0" x2="94.6" y2="54.9" stroke="#3a3a3a" stroke-width="1.2"/><line x1="98.2" y1="62.0" x2="98.2" y2="53.8" stroke="#3a3a3a" stroke-width="1.2"/><line x1="98.2" y1="62.0" x2="101.8" y2="56.0" stroke="#3a3a3a" stroke-width="1.2"/><line x1="17.9" y1="79.6" x2="14.0" y2="72.0" stroke="#3a3a3a" stroke-width="1.2"/><line x1="17.9" y1="79.6" x2="17.9" y2="70.9" stroke="#3a3a3a" stroke-width="1.2"/><line x1="17.9" y1="79.6" x2="21.7" y2="73.1" stroke="#3a3a3a" stroke-width="1.2"/><line x1="87.8" y1="44.6" x2="84.8" y2="38.6" stroke="#3a3a3a" stroke-width="1.2"/><line x1="87.8" y1="44.6" x2="87.8" y2="37.7" stroke="#3a3a3a" stroke-width="1.2"/><line x1="87.8" y1="44.6" x2="90.8" y2="39.5" stroke="#3a3a3a" stroke-width="1.2"/><line x1="86.1" y1="111.2" x2="82.7" y2="104.4" stroke="#3a3a3a" stroke-width="1.2"/><line x1="86.1" y1="111.2" x2="86.1" y2="103.4" stroke="#3a3a3a" stroke-width="1.2"/><line x1="86.1" y1="111.2" x2="89.5" y2="105.4" stroke="#3a3a3a" stroke-width="1.2"/><line x1="36.2" y1="114.5" x2="32.2" y2="106.5" stroke="#3a3a3a" stroke-width="1.2"/><line x1="36.2" y1="114.5" x2="36.2" y2="105.3" stroke="#3a3a3a" stroke-width="1.2"/><line x1="36.2" y1="114.5" x2="40.2" y2="107.7" stroke="#3a3a3a" stroke-width="1.2"/><line x1="8.7" y1="64.2" x2="4.8" y2="56.4" stroke="#3a3a3a" stroke-width="1.2"/><line x1="8.7" y1="64.2" x2="8.7" y2="55.2" stroke="#3a3a3a" stroke-width="1.2"/><line x1="8.7" y1="64.2" x2="12.7" y2="57.6" stroke="#3a3a3a" stroke-width="1.2"/><line x1="107.3" y1="27.4" x2="104.2" y2="21.1" stroke="#3a3a3a" stroke-width="1.2"/><line x1="107.3" y1="27.4" x2="107.3" y2="20.2" stroke="#3a3a3a" stroke-width="1.2"/><line x1="107.3" y1="27.4" x2="110.4" y2="22.1" stroke="#3a3a3a" stroke-width="1.2"/><line x1="39.5" y1="64.5" x2="36.5" y2="58.5" stroke="#3a3a3a" stroke-width="1.2"/><line x1="39.5" y1="64.5" x2="39.5" y2="57.6" stroke="#3a3a3a" stroke-width="1.2"/><line x1="39.5" y1="64.5" x2="42.5" y2="59.4" stroke="#3a3a3a" stroke-width="1.2"/><line x1="23.0" y1="104.9" x2="20.4" y2="99.8" stroke="#3a3a3a" stroke-width="1.2"/><line x1="23.0" y1="104.9" x2="23.0" y2="99.0" stroke="#3a3a3a" stroke-width="1.2"/><line x1="23.0" y1="104.9" x2="25.5" y2="100.5" stroke="#3a3a3a" stroke-width="1.2"/><line x1="40.3" y1="30.5" x2="36.4" y2="22.8" stroke="#3a3a3a" stroke-width="1.2"/><line x1="40.3" y1="30.5" x2="40.3" y2="21.6" stroke="#3a3a3a" stroke-width="1.2"/><line x1="40.3" y1="30.5" x2="44.2" y2="24.0" stroke="#3a3a3a" stroke-width="1.2"/><line x1="116.4" y1="77.9" x2="112.2" y2="69.3" stroke="#3a3a3a" stroke-width="1.2"/><line x1="116.4" y1="77.9" x2="116.4" y2="68.0" stroke="#3a3a3a" stroke-width="1.2"/><line x1="116.4" y1="77.9" x2="120.7" y2="70.6" stroke="#3a3a3a" stroke-width="1.2"/><line x1="49.8" y1="101.4" x2="45.8" y2="93.2" stroke="#3a3a3a" stroke-width="1.2"/><line x1="49.8" y1="101.4" x2="49.8" y2="92.0" stroke="#3a3a3a" stroke-width="1.2"/><line x1="49.8" y1="101.4" x2="53.9" y2="94.5" stroke="#3a3a3a" stroke-width="1.2"/><line x1="63.7" y1="23.1" x2="59.8" y2="15.3" stroke="#3a3a3a" stroke-width="1.2"/><line x1="63.7" y1="23.1" x2="63.7" y2="14.2" stroke="#3a3a3a" stroke-width="1.2"/><line x1="63.7" y1="23.1" x2="67.6" y2="16.5" stroke="#3a3a3a" stroke-width="1.2"/><line x1="70.0" y1="13.2" x2="66.3" y2="5.9" stroke="#3a3a3a" stroke-width="1.2"/><line x1="70.0" y1="13.2" x2="70.0" y2="4.8" stroke="#3a3a3a" stroke-width="1.2"/><line x1="70.0" y1="13.2" x2="73.6" y2="7.0" stroke="#3a3a3a" stroke-width="1.2"/><line x1="29.8" y1="10.0" x2="25.8" y2="2.0" stroke="#3a3a3a" stroke-width="1.2"/><line x1="29.8" y1="10.0" x2="29.8" y2="0.8" stroke="#3a3a3a" stroke-width="1.2"/><line x1="29.8" y1="10.0" x2="33.8" y2="3.2" stroke="#3a3a3a" stroke-width="1.2"/><line x1="54.6" y1="22.1" x2="51.6" y2="16.0" stroke="#3a3a3a" stroke-width="1.2"/><line x1="54.6" y1="22.1" x2="54.6" y2="15.1" stroke="#3a3a3a" stroke-width="1.2"/><line x1="54.6" y1="22.1" x2="57.7" y2="16.9" stroke="#3a3a3a" stroke-width="1.2"/><line x1="14.5" y1="12.7" x2="10.1" y2="3.9" stroke="#3a3a3a" stroke-width="1.2"/><line x1="14.5" y1="12.7" x2="14.5" y2="2.6" stroke="#3a3a3a" stroke-width="1.2"/><line x1="14.5" y1="12.7" x2="18.9" y2="5.2" stroke="#3a3a3a" stroke-width="1.2"/><line x1="14.4" y1="9.4" x2="10.9" y2="2.5" stroke="#3a3a3a" stroke-width="1.2"/><line x1="14.4" y1="9.4" x2="14.4" y2="1.5" stroke="#3a3a3a" stroke-width="1.2"/><line x1="14.4" y1="9.4" x2="17.8" y2="3.5" stroke="#3a3a3a" stroke-width="1.2"/><line x1="23.7" y1="110.1" x2="19.4" y2="101.6" stroke="#3a3a3a" stroke-width="1.2"/><line x1="23.7" y1="110.1" x2="23.7" y2="100.3" stroke="#3a3a3a" stroke-width="1.2"/><line x1="23.7" y1="110.1" x2="28.0" y2="102.8" stroke="#3a3a3a" stroke-width="1.2"/><line x1="25.9" y1="30.5" x2="22.5" y2="23.6" stroke="#3a3a3a" stroke-width="1.2"/><line x1="25.9" y1="30.5" x2="25.9" y2="22.6" stroke="#3a3a3a" stroke-width="1.2"/><line x1="25.9" y1="30.5" x2="29.3" y2="24.7" stroke="#3a3a3a" stroke-width="1.2"/></svg>