<svg xmlns="http://www.w3.org/2000/svg" width="128" height="128" viewBox="0 0 128 128"><rect width="128" height="128" fill="white"/><circle cx="64.5" cy="49.3" r="3.4" fill="white" stroke="#3a3a3a" stroke-width="1.2"/><circle cx="83.0" cy="39.5" r="2.9" fill="white" stroke="#3a3a3a" stroke-width="1.2"/><circle cx="72.1" cy="16.1" r="3.5" fill="white" stroke="#3a3a3a" stroke-width="1.2"/><circle cx="110.3" cy="10.6" r="2.2" fill="white" stroke="#3a3a3a" stroke-width="1.2"/><circle cx="70.3" cy="8.8" r="3.8" fill="white" stroke="#3a3a3a" stroke-width="1.2"/><circle cx="16.6" cy="21.3" r="2.5" fill="white" stroke="#3a3a3a" stroke-width="1.2"/><circle cx="88.9" cy="113.3" r="3.4" fill="white" stroke="#3a3a3a" stroke-width="1.2"/><circle cx="96.7" cy="27.2" r="2.8" fill="white" stroke="#3a3a3a" stroke-width="1.2"/><circle cx="109.8" cy="99.4" r="2.9" fill="white" stroke="#3a3a3a" stroke-width="1.2"/><circle cx="72.6" cy="47.5" r="2.1" fill="white" stroke="#3a3a3a" stroke-width="1.2"/><circle cx="79.0" cy="100.4" r="2.1" fill="white" stroke="#3a3a3a" stroke-width="1.2"/><circle cx="40.2" cy="62.4" r="3.2" fill="white" stroke="#3a3a3a" stroke-width="1.2"/><circle cx="28.1" cy="65.5" r="2.2" fill="white" stroke="#3a3a3a" stroke-width="1.2"/><circle cx="25.1" cy="22.3" r="3.2" fill="white" stroke="#3a3a3a" stroke-width="1.2"/><line x1="10.3" y1="99.9" x2="18.4" y2="99.9" stroke="#3a3a3a" stroke-width="1.2"/><line x1="44.1" y1="99.1" x2="57.0" y2="100.9" stroke="#3a3a3a" stroke-width="1.2"/><line x1="8.3" y1="118.1" x2="22.6" y2="117.1" stroke="#3a3a3a" stroke-width="1.2"/><line x1="48.0" y1="62.0" x2="61.9" y2="61.1" stroke="#3a3a3a" stroke-width="1.2"/><line x1="36.8" y1="80.2" x2="51.2" y2="78.5" stroke="#3a3a3a" stroke-width="1.2"/><line x1="67.3" y1="28.6" x2="77.9" y2="26.9" stroke="#3a3a3a" stroke-width="1.2"/><line x1="85.0" y1="77.8" x2="94.7" y2="79.0" stroke="#3a3a3a" stroke-width="1.2"/><line x1="33.1" y1="31.6" x2="46.2" y2="32.1" stroke="#3a3a3a" stroke-width="1.2"/></svg>