<svg xmlns="http://www.w3.org/2000/svg" width="128" height="128" viewBox="0 0 128 128"><rect width="128" height="128" fill="white"/><circle cx="29.9" cy="63.8" r="2.9" fill="white" stroke="#3a3a3a" stroke-width="1.2"/><circle cx="103.0" cy="10.4" r="2.9" fill="white" stroke="#3a3a3a" stroke-width="1.2"/><circle cx="67.2" cy="11.0" r="3.3" fill="white" stroke="#3a3a3a" stroke-width="1.2"/><circle cx="67.3" cy="106.5" r="3.3" fill="white" stroke="#3a3a3a" stroke-width="1.2"/><circle cx="119.6" cy="26.8" r="3.8" fill="white" stroke="#3a3a3a" stroke-width="1.2"/><circle cx="33.2" cy="102.1" r="4.4" fill="white" stroke="#3a3a3a" stroke-width="1.2"/><circle cx="55.6" cy="22.4" r="3.1" fill="white" stroke="#3a3a3a" stroke-width="1.2"/><circle cx="33.8" cy="76.4" r="2.4" fill="white" stroke="#3a3a3a" stroke-width="1.2"/><circle cx="111.8" cy="24.7" r="2.7" fill="white" stroke="#3a3a3a" stroke-width="1.2"/><circle cx="63.9" cy="40.6" r="2.9" fill="white" stroke="#3a3a3a" stroke-width="1.2"/><circle cx="55.0" cy="63.3" r="3.2" fill="white" stroke="#3a3a3a" stroke-width="1.2"/><circle cx="73.1" cy="84.9" r="4.4" fill="white" stroke="#3a3a3a" stroke-width="1.2"/><circle cx="116.7" cy="99.0" r="2.1" fill="white" stroke="#3a3a3a" stroke-width="1.2"/><circle cx="102.9" cy="89.2" r="2.6" fill="white" stroke="#3a3a3a" stroke-width="1.2"/><line x1="21.5" y1="112.2" x2="30.3" y2="113.0" stroke="#3a3a3a" stroke-width="1.2"/><line x1="44.3" y1="79.2" x2="55.7" y2="80.7" stroke="#3a3a3a" stroke-width="1.2"/><line x1="66.4" y1="113.9" x2="80.3" y2="115.7" stroke="#3a3a3a" stroke-width="1.2"/><line x1="24.8" y1="29.9" x2="36.8" y2="29.1" stroke="#3a3a3a" stroke-width="1.2"/><line x1="93.3" y1="88.3" x2="102.9" y2="87.3" stroke="#3a3a3a" stroke-width="1.2"/><line x1="61.9" y1="77.4" x2="69.2" y2="76.8" stroke="#3a3a3a" stroke-width="1.2"/><line x1="33.4" y1="34.9" x2="43.5" y2="36.8" stroke="#3a3a3a" stroke-width="1.2"/><line x1="73.1" y1="11.7" x2="84.2" y2="10.5" stroke="#3a3a3a" stroke-width="1.2"/></svg>