<svg xmlns="http://www.w3.org/2000/svg" width="128" height="128" viewBox="0 0 128 128"><rect width="128" height="128" fill="white"/><circle cx="35.9" cy="91.7" r="2.2" fill="white" stroke="#3a3a3a" stroke-width="1.2"/><circle cx="24.1" cy="82.6" r="4.3" fill="white" stroke="#3a3a3a" stroke-width="1.2"/><circle cx="33.3" cy="49.4" r="2.4" fill="white" stroke="#3a3a3a" stroke-width="1.2"/><circle cx="96.8" cy="72.8" r="3.0" fill="white" stroke="#3a3a3a" stroke-width="1.2"/><circle cx="21.5" cy="97.6" r="3.3" fill="white" stroke="#3a3a3a" stroke-width="1.2"/><circle cx="98.7" cy="101.4" r="4.0" fill="white" stroke="#3a3a3a" stroke-width="1.2"/><circle cx="66.2" cy="99.9" r="4.2" fill="white" stroke="#3a3a3a" stroke-width="1.2"/><circle cx="68.5" cy="69.1" r="2.8" fill="white" stroke="#3a3a3a" stroke-width="1.2"/><circle cx="60.2" cy="75.4" r="3.5" fill="white" stroke="#3a3a3a" stroke-width="1.2"/><circle cx="77.8" cy="104.1" r="4.1" fill="white" stroke="#3a3a3a" stroke-width="1.2"/><circle cx="66.2" cy="46.0" r="3.9" fill="white" stroke="#3a3a3a" stroke-width="1.2"/><circle cx="95.8" cy="106.0" r="3.8" fill="white" stroke="#3a3a3a" stroke-width="1.2"/><circle cx="27.5" cy="115.8" r="2.1" fill="white" stroke="#3a3a3a" stroke-width="1.2"/><circle cx="66.1" cy="108.6" r="2.7" fill="white" stroke="#3a3a3a" stroke-width="1.2"/><line x1="9.0" y1="77.6" x2="19.0" y2="78.9" stroke="#3a3a3a" stroke-width="1.2"/><line x1="55.9" y1="87.6" x2="64.8" y2="88.5" stroke="#3a3a3a" stroke-width="1.2"/><line x1="86.0" y1="87.9" x2="100.5" y2="88.8" stroke="#3a3a3a" stroke-width="1.2"/><line x1="88.4" y1="100.0" x2="100.4" y2="98.8" stroke="#3a3a3a" stroke-width="1.2"/><line x1="23.2" y1="53.9" x2="36.5" y2="54.5" stroke="#3a3a3a" stroke-width="1.2"/><line x1="60.9" y1="29.9" x2="71.9" y2="30.2" stroke="#3a3a3a" stroke-width="1.2"/><line x1="74.9" y1="17.9" x2="86.7" y2="18.7" stroke="#3a3a3a" stroke-width="1.2"/><line x1="66.3" y1="99.0" x2="75.6" y2="99.6" stroke="#3a3a3a" stroke-width="1.2"/></svg>