<svg xmlns="http://www.w3.org/2000/svg" width="128" height="128" viewBox="0 0 128 128"><rect width="128" height="128" fill="white"/><line x1="0.0" y1="0.0" x2="128.0" y2="0.0" stroke="#3a3a3a" stroke-width="1.2"/><line x1="0.0" y1="16.0" x2="128.0" y2="16.0" stroke="#3a3a3a" stroke-width="1.2"/><line x1="0.0" y1="32.0" x2="128.0" y2="32.0" stroke="#3a3a3a" stroke-width="1.2"/><line x1="0.0" y1="48.0" x2="128.0" y2="48.0" stroke="#3a3a3a" stroke-width="1.2"/><line x1="0.0" y1="64.0" x2="128.0" y2="64.0" stroke="#3a3a3a" stroke-width="1.2"/><line x1="0.0" y1="80.0" x2="128.0" y2="80.0" stroke="#3a3a3a" stroke-width="1.2"/><line x1="0.0" y1="96.0" x2="128.0" y2="96.0" stroke="#3a3a3a" stroke-width="1.2"/><line x1="0.0" y1="112.0" x2="128.0" y2="112.0" stroke="#3a3a3a" stroke-width="1.2"/><line x1="0.0" y1="128.0" x2="128.0" y2="128.0" stroke="#3a3a3a" stroke-width="1.2"/><line x1="18.4" y1="0.0" x2="19.4" y2="16.0" stroke="#3a3a3a" stroke-width="1.6"/><line x1="48.3" y1="0.0" x2="48.3" y2="16.0" stroke="#3a3a3a" stroke-width="1.6"/><line x1="67.0" y1="0.0" x2="67.0" y2="16.0" stroke="#3a3a3a" stroke-width="1.6"/><line x1="96.3" y1="0.0" x2="96.3" y2="16.0" stroke="#3a3a3a" stroke-width="1.6"/><line x1="117.5" y1="0.0" x2="117.5" y2="16.0" stroke="#3a3a3a" stroke-width="1.6"/><line x1="26.7" y1="16.0" x2="26.7" y2="32.0" stroke="#3a3a3a" stroke-width="1.6"/><line x1="55.8" y1="16.0" x2="55.8" y2="32.0" stroke="#3a3a3a" stroke-width="1.6"/><line x1="72.6" y1="16.0" x2="72.6" y2="32.0" stroke="#3a3a3a" stroke-width="1.6"/><line x1="91.9" y1="16.0" x2="91.9" y2="32.0" stroke="#3a3a3a" stroke-width="1.6"/><line x1="110.6" y1="16.0" x2="110.6" y2="32.0" stroke="#3a3a3a" stroke-width="1.6"/><line x1="16.9" y1="32.0" x2="16.9" y2="48.0" stroke="#3a3a3a" stroke-width="1.6"/><line x1="39.8" y1="32.0" x2="39.8" y2="48.0" stroke="#3a3a3a" stroke-width="1.6"/><line x1="67.8" y1="32.0" x2="67.8" y2="48.0" stroke="#3a3a3a" stroke-width="1.6"/><line x1="82.7" y1="32.0" x2="80.2" y2="48.0" stroke="#3a3a3a" stroke-width="1.6"/><line x1="99.5" y1="32.0" x2="101.5" y2="48.0" stroke="#3a3a3a" stroke-width="1.6"/><line x1="27.0" y1="48.0" x2="27.0" y2="64.0" stroke="#3a3a3a" stroke-width="1.6"/><line x1="49.0" y1="48.0" x2="49.0" y2="64.0" stroke="#3a3a3a" stroke-width="1.6"/><line x1="78.5" y1="48.0" x2="78.5" y2="64.0" stroke="#3a3a3a" stroke-width="1.6"/><line x1="106.9" y1="48.0" x2="106.9" y2="64.0" stroke="#3a3a3a" stroke-width="1.6"/><line x1="29.9" y1="64.0" x2="29.9" y2="80.0" stroke="#3a3a3a" stroke-width="1.6"/><line x1="45.0" y1="64.0" x2="45.0" y2="80.0" stroke="#3a3a3a" stroke-width="1.6"/><line x1="64.0" y1="64.0" x2="64.0" y2="80.0" stroke="#3a3a3a" stroke-width="1.6"/><line x1="93.8" y1="64.0" x2="93.8" y2="80.0" stroke="#3a3a3a" stroke-width="1.6"/><line x1="112.5" y1="64.0" x2="112.5" y2="80.0" stroke="#3a3a3a" stroke-width="1.6"/><line x1="21.4" y1="80.0" x2="21.4" y2="96.0" stroke="#3a3a3a" stroke-width="1.6"/><line x1="40.7" y1="80.0" x2="40.7" y2="96.0" stroke="#3a3a3a" stroke-width="1.6"/><line x1="66.7" y1="80.0" x2="66.7" y2="96.0" stroke="#3a3a3a" stroke-width="1.6"/><line x1="82.8" y1="80.0" x2="82.8" y2="96.0" stroke="#3a3a3a" stroke-width="1.6"/><line x1="112.4" y1="80.0" x2="115.2" y2="96.0" stroke="#3a3a3a" stroke-width="1.6"/><line x1="17.1" y1="96.0" x2="17.1" y2="112.0" stroke="#3a3a3a" stroke-width="1.6"/><line x1="45.4" y1="96.0" x2="45.4" y2="112.0" stroke="#3a3a3a" stroke-width="1.6"/><line x1="64.4" y1="96.0" x2="64.4" y2="112.0" stroke="#3a3a3a" stroke-width="1.6"/><line x1="89.1" y1="96.0" x2="87.1" y2="112.0" stroke="#3a3a3a" stroke-width="1.6"/><line x1="108.7" y1="96.0" x2="111.5" y2="112.0" stroke="#3a3a3a" stroke-width="1.6"/><line x1="19.3" y1="112.0" x2="19.3" y2="128.0" stroke="#3a3a3a" stroke-width="1.6"/><line x1="44.2" y1="112.0" x2="44.2" y2="128.0" stroke="#3a3a3a" stroke-width="1.6"/><line x1="64.4" y1="112.0" x2="64.4" y2="128.0" stroke="#3a3a3a" stroke-width="1.6"/><line x1="92.8" y1="112.0" x2="92.8" y2="128.0" stroke="#3a3a3a" stroke-width="1.6"/><line x1="108.9" y1="112.0" x2="108.9" y2="128.0" stroke="#3a3a3a" stroke-width="1.6"/></svg>