<svg xmlns="http://www.w3.org/2000/svg" width="128" height="128" viewBox="0 0 128 128"><rect width="128" height="128" fill="white"/><line x1="0.0" y1="0.0" x2="128.0" y2="0.0" stroke="#3a3a3a" stroke-width="1.2"/><line x1="0.0" y1="16.0" x2="128.0" y2="16.0" stroke="#3a3a3a" stroke-width="1.2"/><line x1="0.0" y1="32.0" x2="128.0" y2="32.0" stroke="#3a3a3a" stroke-width="1.2"/><line x1="0.0" y1="48.0" x2="128.0" y2="48.0" stroke="#3a3a3a" stroke-width="1.2"/><line x1="0.0" y1="64.0" x2="128.0" y2="64.0" stroke="#3a3a3a" stroke-width="1.2"/><line x1="0.0" y1="80.0" x2="128.0" y2="80.0" stroke="#3a3a3a" stroke-width="1.2"/><line x1="0.0" y1="96.0" x2="128.0" y2="96.0" stroke="#3a3a3a" stroke-width="1.2"/><line x1="0.0" y1="112.0" x2="128.0" y2="112.0" stroke="#3a3a3a" stroke-width="1.2"/><line x1="0.0" y1="128.0" x2="128.0" y2="128.0" stroke="#3a3a3a" stroke-width="1.2"/><line x1="19.7" y1="0.0" x2="19.7" y2="16.0" stroke="#3a3a3a" stroke-width="1.6"/><line x1="42.3" y1="0.0" x2="42.3" y2="16.0" stroke="#3a3a3a" stroke-width="1.6"/><line x1="62.9" y1="0.0" x2="62.9" y2="16.0" stroke="#3a3a3a" stroke-width="1.6"/><line x1="84.4" y1="0.0" x2="84.4" y2="16.0" stroke="#3a3a3a" stroke-width="1.6"/><line x1="101.5" y1="0.0" x2="101.5" y2="16.0" stroke="#3a3a3a" stroke-width="1.6"/><line x1="17.4" y1="16.0" x2="17.4" y2="32.0" stroke="#3a3a3a" stroke-width="1.6"/><line x1="44.4" y1="16.0" x2="44.4" y2="32.0" stroke="#3a3a3a" stroke-width="1.6"/><line x1="64.6" y1="16.0" x2="64.6" y2="32.0" stroke="#3a3a3a" stroke-width="1.6"/><line x1="79.5" y1="16.0" x2="79.5" y2="32.0" stroke="#3a3a3a" stroke-width="1.6"/><line x1="95.8" y1="16.0" x2="95.8" y2="32.0" stroke="#3a3a3a" stroke-width="1.6"/><line x1="113.3" y1="16.0" x2="113.3" y2="32.0" stroke="#3a3a3a" stroke-width="1.6"/><line x1="19.1" y1="32.0" x2="19.1" y2="48.0" stroke="#3a3a3a" stroke-width="1.6"/><line x1="46.7" y1="32.0" x2="46.7" y2="48.0" stroke="#3a3a3a" stroke-width="1.6"/><line x1="68.2" y1="32.0" x2="68.2" y2="48.0" stroke="#3a3a3a" stroke-width="1.6"/><line x1="84.1" y1="32.0" x2="80.3" y2="48.0" stroke="#3a3a3a" stroke-width="1.6"/><line x1="101.8" y1="32.0" x2="101.8" y2="48.0" stroke="#3a3a3a" stroke-width="1.6"/><line x1="18.4" y1="48.0" x2="18.4" y2="64.0" stroke="#3a3a3a" stroke-width="1.6"/><line x1="32.5" y1="48.0" x2="32.5" y2="64.0" stroke="#3a3a3a" stroke-width="1.6"/><line x1="51.6" y1="48.0" x2="51.6" y2="64.0" stroke="#3a3a3a" stroke-width="1.6"/><line x1="67.8" y1="48.0" x2="67.8" y2="64.0" stroke="#3a3a3a" stroke-width="1.6"/><line x1="91.1" y1="48.0" x2="91.1" y2="64.0" stroke="#3a3a3a" stroke-width="1.6"/><line x1="107.9" y1="48.0" x2="107.9" y2="64.0" stroke="#3a3a3a" stroke-width="1.6"/><line x1="15.7" y1="64.0" x2="15.7" y2="80.0" stroke="#3a3a3a" stroke-width="1.6"/><line x1="33.5" y1="64.0" x2="33.5" y2="80.0" stroke="#3a3a3a" stroke-width="1.6"/><line x1="49.4" y1="64.0" x2="49.4" y2="80.0" stroke="#3a3a3a" stroke-width="1.6"/><line x1="74.4" y1="64.0" x2="74.4" y2="80.0" stroke="#3a3a3a" stroke-width="1.6"/><line x1="89.7" y1="64.0" x2="89.7" y2="80.0" stroke="#3a3a3a" stroke-width="1.6"/><line x1="112.6" y1="64.0" x2="113.7" y2="80.0" stroke="#3a3a3a" stroke-width="1.6"/><line x1="27.0" y1="80.0" x2="27.0" y2="96.0" stroke="#3a3a3a" stroke-width="1.6"/><line x1="43.4" y1="80.0" x2="43.4" y2="96.0" stroke="#3a3a3a" stroke-width="1.6"/><line x1="59.8" y1="80.0" x2="59.8" y2="96.0" stroke="#3a3a3a" stroke-width="1.6"/><line x1="78.4" y1="80.0" x2="78.4" y2="96.0" stroke="#3a3a3a" stroke-width="1.6"/><line x1="100.5" y1="80.0" x2="100.5" y2="96.0" stroke="#3a3a3a" stroke-width="1.6"/><line x1="22.0" y1="96.0" x2="18.7" y2="112.0" stroke="#3a3a3a" stroke-width="1.6"/><line x1="41.6" y1="96.0" x2="41.6" y2="112.0" stroke="#3a3a3a" stroke-width="1.6"/><line x1="56.6" y1="96.0" x2="56.6" y2="112.0" stroke="#3a3a3a" stroke-width="1.6"/><line x1="76.9" y1="96.0" x2="76.9" y2="112.0" stroke="#3a3a3a" stroke-width="1.6"/><line x1="103.6" y1="96.0" x2="103.6" y2="112.0" stroke="#3a3a3a" stroke-width="1.6"/><line x1="24.0" y1="112.0" x2="24.0" y2="128.0" stroke="#3a3a3a" stroke-width="1.6"/><line x1="40.9" y1="112.0" x2="40.9" y2="128.0" stroke="#3a3a3a" stroke-width="1.6"/><line x1="58.4" y1="112.0" x2="58.4" y2="128.0" stroke="#3a3a3a" stroke-width="1.6"/><line x1="80.6" y1="112.0" x2="80.6" y2="128.0" stroke="#3a3a3a" stroke-width="1.6"/><line x1="96.1" y1="112.0" x2="96.1" y2="128.0" stroke="#3a3a3a" stroke-width="1.6"/></svg>