<svg xmlns="http://www.w3.org/2000/svg" width="128" height="128" viewBox="0 0 128 128"><rect width="128" height="128" fill="white"/><circle cx="81.2" cy="93.9" r="2.1" fill="white" stroke="#3a3a3a" stroke-width="1.2"/><circle cx="118.9" cy="89.1" r="3.8" fill="white" stroke="#3a3a3a" stroke-width="1.2"/><circle cx="69.2" cy="105.1" r="2.7" fill="white" stroke="#3a3a3a" stroke-width="1.2"/><circle cx="84.0" cy="98.6" r="3.0" fill="white" stroke="#3a3a3a" stroke-width="1.2"/><circle cx="53.9" cy="110.4" r="2.4" fill="white" stroke="#3a3a3a" stroke-width="1.2"/><circle cx="64.8" cy="30.3" r="2.8" fill="white" stroke="#3a3a3a" stroke-width="1.2"/><circle cx="18.6" cy="115.3" r="3.3" fill="white" stroke="#3a3a3a" stroke-width="1.2"/><circle cx="74.3" cy="111.4" r="4.1" fill="white" stroke="#3a3a3a" stroke-width="1.2"/><circle cx="35.6" cy="82.8" r="2.3" fill="white" stroke="#3a3a3a" stroke-width="1.2"/><circle cx="65.9" cy="15.8" r="4.5" fill="white" stroke="#3a3a3a" stroke-width="1.2"/><circle cx="54.3" cy="116.9" r="2.3" fill="white" stroke="#3a3a3a" stroke-width="1.2"/><circle cx="75.5" cy="31.4" r="3.0" fill="white" stroke="#3a3a3a" stroke-width="1.2"/><circle cx="118.3" cy="107.9" r="3.5" fill="white" stroke="#3a3a3a" stroke-width="1.2"/><circle cx="96.8" cy="60.3" r="3.1" fill="white" stroke="#3a3a3a" stroke-width="1.2"/><line x1="66.9" y1="56.9" x2="79.4" y2="57.3" stroke="#3a3a3a" stroke-width="1.2"/><line x1="38.9" y1="33.7" x2="48.9" y2="35.0" stroke="#3a3a3a" stroke-width="1.2"/><line x1="60.7" y1="41.5" x2="74.9" y2="42.5" stroke="#3a3a3a" stroke-width="1.2"/><line x1="49.2" y1="32.6" x2="62.1" y2="34.5" stroke="#3a3a3a" stroke-width="1.2"/><line x1="39.5" y1="116.6" x2="53.1" y2="115.0" stroke="#3a3a3a" stroke-width="1.2"/><line x1="64.6" y1="78.0" x2="76.8" y2="76.0" stroke="#3a3a3a" stroke-width="1.2"/><line x1="32.8" y1="35.2" x2="45.7" y2="34.4" stroke="#3a3a3a" stroke-width="1.2"/><line x1="75.4" y1="102.6" x2="89.8" y2="101.1" stroke="#3a3a3a" stroke-width="1.2"/></svg>