<svg xmlns="http://www.w3.org/2000/svg" width="128" height="128" viewBox="0 0 128 128"><rect width="128" height="128" fill="white"/><line x1="0.0" y1="0.0" x2="128.0" y2="0.0" stroke="#3a3a3a" stroke-width="1.2"/><line x1="0.0" y1="16.0" x2="128.0" y2="16.0" stroke="#3a3a3a" stroke-width="1.2"/><line x1="0.0" y1="32.0" x2="128.0" y2="32.0" stroke="#3a3a3a" stroke-width="1.2"/><line x1="0.0" y1="48.0" x2="128.0" y2="48.0" stroke="#3a3a3a" stroke-width="1.2"/><line x1="0.0" y1="64.0" x2="128.0" y2="64.0" stroke="#3a3a3a" stroke-width="1.2"/><line x1="0.0" y1="80.0" x2="128.0" y2="80.0" stroke="#3a3a3a" stroke-width="1.2"/><line x1="0.0" y1="96.0" x2="128.0" y2="96.0" stroke="#3a3a3a" stroke-width="1.2"/><line x1="0.0" y1="112.0" x2="128.0" y2="112.0" stroke="#3a3a3a" stroke-width="1.2"/><line x1="0.0" y1="128.0" x2="128.0" y2="128.0" stroke="#3a3a3a" stroke-width="1.2"/><line x1="16.6" y1="0.0" x2="16.6" y2="16.0" stroke="#3a3a3a" stroke-width="1.6"/><line x1="38.4" y1="0.0" x2="38.4" y2="16.0" stroke="#3a3a3a" stroke-width="1.6"/><line x1="60.6" y1="0.0" x2="60.6" y2="16.0" stroke="#3a3a3a" stroke-width="1.6"/><line x1="86.0" y1="0.0" x2="86.0" y2="16.0" stroke="#3a3a3a" stroke-width="1.6"/><line x1="104.3" y1="0.0" x2="104.3" y2="16.0" stroke="#3a3a3a" stroke-width="1.6"/><line x1="20.9" y1="16.0" x2="20.9" y2="32.0" stroke="#3a3a3a" stroke-width="1.6"/><line x1="40.8" y1="16.0" x2="40.8" y2="32.0" stroke="#3a3a3a" stroke-width="1.6"/><line x1="62.3" y1="16.0" x2="64.9" y2="32.0" stroke="#3a3a3a" stroke-width="1.6"/><line x1="77.3" y1="16.0" x2="77.3" y2="32.0" stroke="#3a3a3a" stroke-width="1.6"/><line x1="91.6" y1="16.0" x2="91.6" y2="32.0" stroke="#3a3a3a" stroke-width="1.6"/><line x1="110.4" y1="16.0" x2="110.4" y2="32.0" stroke="#3a3a3a" stroke-width="1.6"/><line x1="27.8" y1="32.0" x2="27.9" y2="48.0" stroke="#3a3a3a" stroke-width="1.6"/><line x1="48.5" y1="32.0" x2="48.5" y2="48.0" stroke="#3a3a3a" stroke-width="1.6"/><line x1="76.7" y1="32.0" x2="76.7" y2="48.0" stroke="#3a3a3a" stroke-width="1.6"/><line x1="102.6" y1="32.0" x2="98.6" y2="48.0" stroke="#3a3a3a" stroke-width="1.6"/><line x1="116.7" y1="32.0" x2="116.7" y2="48.0" stroke="#3a3a3a" stroke-width="1.6"/><line x1="15.8" y1="48.0" x2="15.8" y2="64.0" stroke="#3a3a3a" stroke-width="1.6"/><line x1="33.5" y1="48.0" x2="33.5" y2="64.0" stroke="#3a3a3a" stroke-width="1.6"/><line x1="63.3" y1="48.0" x2="63.3" y2="64.0" stroke="#3a3a3a" stroke-width="1.6"/><line x1="91.7" y1="48.0" x2="91.7" y2="64.0" stroke="#3a3a3a" stroke-width="1.6"/><line x1="115.7" y1="48.0" x2="115.7" y2="64.0" stroke="#3a3a3a" stroke-width="1.6"/><line x1="24.5" y1="64.0" x2="24.5" y2="80.0" stroke="#3a3a3a" stroke-width="1.6"/><line x1="43.7" y1="64.0" x2="43.6" y2="80.0" stroke="#3a3a3a" stroke-width="1.6"/><line x1="58.0" y1="64.0" x2="58.0" y2="80.0" stroke="#3a3a3a" stroke-width="1.6"/><line x1="76.3" y1="64.0" x2="76.3" y2="80.0" stroke="#3a3a3a" stroke-width="1.6"/><line x1="96.9" y1="64.0" x2="96.9" y2="80.0" stroke="#3a3a3a" stroke-width="1.6"/><line x1="114.6" y1="64.0" x2="114.6" y2="80.0" stroke="#3a3a3a" stroke-width="1.6"/><line x1="25.4" y1="80.0" x2="25.4" y2="96.0" stroke="#3a3a3a" stroke-width="1.6"/><line x1="48.6" y1="80.0" x2="48.6" y2="96.0" stroke="#3a3a3a" stroke-width="1.6"/><line x1="72.2" y1="80.0" x2="72.2" y2="96.0" stroke="#3a3a3a" stroke-width="1.6"/><line x1="101.5" y1="80.0" x2="103.3" y2="96.0" stroke="#3a3a3a" stroke-width="1.6"/><line x1="116.0" y1="80.0" x2="116.0" y2="96.0" stroke="#3a3a3a" stroke-width="1.6"/><line x1="28.2" y1="96.0" x2="28.2" y2="112.0" stroke="#3a3a3a" stroke-width="1.6"/><line x1="54.2" y1="96.0" x2="54.2" y2="112.0" stroke="#3a3a3a" stroke-width="1.6"/><line x1="68.7" y1="96.0" x2="68.7" y2="112.0" stroke="#3a3a3a" stroke-width="1.6"/><line x1="86.6" y1="96.0" x2="86.6" y2="112.0" stroke="#3a3a3a" stroke-width="1.6"/><line x1="102.9" y1="96.0" x2="102.9" y2="112.0" stroke="#3a3a3a" stroke-width="1.6"/><line x1="24.4" y1="112.0" x2="24.4" y2="128.0" stroke="#3a3a3a" stroke-width="1.6"/><line x1="44.9" y1="112.0" x2="43.5" y2="128.0" stroke="#3a3a3a" stroke-width="1.6"/><line x1="64.2" y1="112.0" x2="64.2" y2="128.0" stroke="#3a3a3a" stroke-width="1.6"/><line x1="88.6" y1="112.0" x2="88.6" y2="128.0" stroke="#3a3a3a" stroke-width="1.6"/><line x1="116.7" y1="112.0" x2="116.7" y2="128.0" stroke="#3a3a3a" stroke-width="1.6"/></svg>