<svg xmlns="http://www.w3.org/2000/svg" width="128" height="128" viewBox="0 0 128 128"><rect width="128" height="128" fill="white"/><line x1="0.0" y1="0.0" x2="128.0" y2="0.0" stroke="#3a3a3a" stroke-width="1.2"/><line x1="0.0" y1="16.0" x2="128.0" y2="16.0" stroke="#3a3a3a" stroke-width="1.2"/><line x1="0.0" y1="32.0" x2="128.0" y2="32.0" stroke="#3a3a3a" stroke-width="1.2"/><line x1="0.0" y1="48.0" x2="128.0" y2="48.0" stroke="#3a3a3a" stroke-width="1.2"/><line x1="0.0" y1="64.0" x2="128.0" y2="64.0" stroke="#3a3a3a" stroke-width="1.2"/><line x1="0.0" y1="80.0" x2="128.0" y2="80.0" stroke="#3a3a3a" stroke-width="1.2"/><line x1="0.0" y1="96.0" x2="128.0" y2="96.0" stroke="#3a3a3a" stroke-width="1.2"/><line x1="0.0" y1="112.0" x2="128.0" y2="112.0" stroke="#3a3a3a" stroke-width="1.2"/><line x1="0.0" y1="128.0" x2="128.0" y2="128.0" stroke="#3a3a3a" stroke-width="1.2"/><line x1="23.8" y1="0.0" x2="23.8" y2="16.0" stroke="#3a3a3a" stroke-width="1.6"/><line x1="39.9" y1="0.0" x2="39.9" y2="16.0" stroke="#3a3a3a" stroke-width="1.6"/><line x1="64.1" y1="0.0" x2="60.5" y2="16.0" stroke="#3a3a3a" stroke-width="1.6"/><line x1="89.7" y1="0.0" x2="88.9" y2="16.0" stroke="#3a3a3a" stroke-width="1.6"/><line x1="114.1" y1="0.0" x2="114.1" y2="16.0" stroke="#3a3a3a" stroke-width="1.6"/><line x1="24.3" y1="16.0" x2="23.0" y2="32.0" stroke="#3a3a3a" stroke-width="1.6"/><line x1="53.8" y1="16.0" x2="53.8" y2="32.0" stroke="#3a3a3a" stroke-width="1.6"/><line x1="79.0" y1="16.0" x2="79.0" y2="32.0" stroke="#3a3a3a" stroke-width="1.6"/><line x1="101.4" y1="16.0" x2="98.4" y2="32.0" stroke="#3a3a3a" stroke-width="1.6"/><line x1="24.0" y1="32.0" x2="24.4" y2="48.0" stroke="#3a3a3a" stroke-width="1.6"/><line x1="47.5" y1="32.0" x2="47.5" y2="48.0" stroke="#3a3a3a" stroke-width="1.6"/><line x1="70.4" y1="32.0" x2="70.4" y2="48.0" stroke="#3a3a3a" stroke-width="1.6"/><line x1="97.6" y1="32.0" x2="97.6" y2="48.0" stroke="#3a3a3a" stroke-width="1.6"/><line x1="115.7" y1="32.0" x2="115.7" y2="48.0" stroke="#3a3a3a" stroke-width="1.6"/><line x1="19.0" y1="48.0" x2="19.0" y2="64.0" stroke="#3a3a3a" stroke-width="1.6"/><line x1="41.5" y1="48.0" x2="41.5" y2="64.0" stroke="#3a3a3a" stroke-width="1.6"/><line x1="66.7" y1="48.0" x2="66.7" y2="64.0" stroke="#3a3a3a" stroke-width="1.6"/><line x1="80.8" y1="48.0" x2="80.8" y2="64.0" stroke="#3a3a3a" stroke-width="1.6"/><line x1="99.3" y1="48.0" x2="99.3" y2="64.0" stroke="#3a3a3a" stroke-width="1.6"/><line x1="15.9" y1="64.0" x2="15.9" y2="80.0" stroke="#3a3a3a" stroke-width="1.6"/><line x1="41.9" y1="64.0" x2="41.9" y2="80.0" stroke="#3a3a3a" stroke-width="1.6"/><line x1="59.2" y1="64.0" x2="59.2" y2="80.0" stroke="#3a3a3a" stroke-width="1.6"/><line x1="74.5" y1="64.0" x2="74.5" y2="80.0" stroke="#3a3a3a" stroke-width="1.6"/><line x1="91.6" y1="64.0" x2="91.6" y2="80.0" stroke="#3a3a3a" stroke-width="1.6"/><line x1="115.5" y1="64.0" x2="115.5" y2="80.0" stroke="#3a3a3a" stroke-width="1.6"/><line x1="26.9" y1="80.0" x2="26.9" y2="96.0" stroke="#3a3a3a" stroke-width="1.6"/><line x1="56.6" y1="80.0" x2="56.6" y2="96.0" stroke="#3a3a3a" stroke-width="1.6"/><line x1="78.2" y1="80.0" x2="78.2" y2="96.0" stroke="#3a3a3a" stroke-width="1.6"/><line x1="97.1" y1="80.0" x2="97.1" y2="96.0" stroke="#3a3a3a" stroke-width="1.6"/><line x1="16.1" y1="96.0" x2="16.1" y2="112.0" stroke="#3a3a3a" stroke-width="1.6"/><line x1="44.6" y1="96.0" x2="44.6" y2="112.0" stroke="#3a3a3a" stroke-width="1.6"/><line x1="59.1" y1="96.0" x2="59.1" y2="112.0" stroke="#3a3a3a" stroke-width="1.6"/><line x1="86.1" y1="96.0" x2="86.1" y2="112.0" stroke="#3a3a3a" stroke-width="1.6"/><line x1="106.6" y1="96.0" x2="106.6" y2="112.0" stroke="#3a3a3a" stroke-width="1.6"/><line x1="29.3" y1="112.0" x2="29.3" y2="128.0" stroke="#3a3a3a" stroke-width="1.6"/><line x1="45.1" y1="112.0" x2="45.1" y2="128.0" stroke="#3a3a3a" stroke-width="1.6"/><line x1="61.7" y1="112.0" x2="61.7" y2="128.0" stroke="#3a3a3a" stroke-width="1.6"/><line x1="85.1" y1="112.0" x2="85.1" y2="128.0" stroke="#3a3a3a" stroke-width="1.6"/><line x1="109.9" y1="112.0" x2="109.9" y2="128.0" stroke="#3a3a3a" stroke-width="1.6"/></svg>