<svg xmlns="http://www.w3.org/2000/svg" width="128" height="128" viewBox="0 0 128 128"><rect width="128" height="128" fill="white"/><line x1="0.0" y1="0.0" x2="128.0" y2="0.0" stroke="#3a3a3a" stroke-width="2.0"/><line x1="0.0" y1="128.0" x2="128.0" y2="128.0" stroke="#3a3a3a" stroke-width="2.0"/><line x1="0.0" y1="16.0" x2="128.0" y2="16.0" stroke="#3a3a3a" stroke-width="1.4"/><line x1="0.0" y1="32.0" x2="128.0" y2="32.0" stroke="#3a3a3a" stroke-width="1.4"/><line x1="0.0" y1="48.0" x2="128.0" y2="48.0" stroke="#3a3a3a" stroke-width="1.4"/><line x1="0.0" y1="64.0" x2="128.0" y2="64.0" stroke="#3a3a3a" stroke-width="1.4"/><line x1="0.0" y1="80.0" x2="128.0" y2="80.0" stroke="#3a3a3a" stroke-width="1.4"/><line x1="0.0" y1="96.0" x2="128.0" y2="96.0" stroke="#3a3a3a" stroke-width="1.4"/><line x1="0.0" y1="112.0" x2="128.0" y2="112.0" stroke="#3a3a3a" stroke-width="1.4"/><line x1="30.7" y1="0.0" x2="30.7" y2="16.0" stroke="#3a3a3a" stroke-width="1.6"/><line x1="66.7" y1="0.0" x2="66.7" y2="16.0" stroke="#3a3a3a" stroke-width="1.6"/><line x1="98.4" y1="0.0" x2="98.4" y2="16.0" stroke="#3a3a3a" stroke-width="1.6"/><line x1="17.3" y1="16.0" x2="17.3" y2="32.0" stroke="#3a3a3a" stroke-width="1.6"/><line x1="48.3" y1="16.0" x2="48.3" y2="32.0" stroke="#3a3a3a" stroke-width="1.6"/><line x1="79.7" y1="16.0" x2="79.7" y2="32.0" stroke="#3a3a3a" stroke-width="1.6"/><line x1="112.6" y1="16.0" x2="112.6" y2="32.0" stroke="#3a3a3a" stroke-width="1.6"/><line x1="31.7" y1="32.0" x2="31.7" y2="48.0" stroke="#3a3a3a" stroke-width="1.6"/><line x1="64.3" y1="32.0" x2="64.3" y2="48.0" stroke="#3a3a3a" stroke-width="1.6"/><line x1="98.9" y1="32.0" x2="98.9" y2="48.0" stroke="#3a3a3a" stroke-width="1.6"/><line x1="13.3" y1="48.0" x2="13.3" y2="64.0" stroke="#3a3a3a" stroke-width="1.6"/><line x1="44.2" y1="48.0" x2="44.2" y2="64.0" stroke="#3a3a3a" stroke-width="1.6"/><line x1="73.5" y1="48.0" x2="73.5" y2="64.0" stroke="#3a3a3a" stroke-width="1.6"/><line x1="106.9" y1="48.0" x2="106.9" y2="64.0" stroke="#3a3a3a" stroke-width="1.6"/><line x1="33.8" y1="64.0" x2="33.8" y2="80.0" stroke="#3a3a3a" stroke-width="1.6"/><line x1="67.3" y1="64.0" x2="67.3" y2="80.0" stroke="#3a3a3a" stroke-width="1.6"/><line x1="102.4" y1="64.0" x2="102.4" y2="80.0" stroke="#3a3a3a" stroke-width="1.6"/><line x1="13.3" y1="80.0" x2="13.3" y2="96.0" stroke="#3a3a3a" stroke-width="1.6"/><line x1="44.8" y1="80.0" x2="44.8" y2="96.0" stroke="#3a3a3a" stroke-width="1.6"/><line x1="77.6" y1="80.0" x2="77.6" y2="96.0" stroke="#3a3a3a" stroke-width="1.6"/><line x1="108.1" y1="80.0" x2="108.1" y2="96.0" stroke="#3a3a3a" stroke-width="1.6"/><line x1="28.8" y1="96.0" x2="28.8" y2="112.0" stroke="#3a3a3a" stroke-width="1.6"/><line x1="61.8" y1="96.0" x2="61.8" y2="112.0" stroke="#3a3a3a" stroke-width="1.6"/><line x1="90.2" y1="96.0" x2="90.2" y2="112.0" stroke="#3a3a3a" stroke-width="1.6"/><line x1="18.3" y1="112.0" x2="18.3" y2="128.0" stroke="#3a3a3a" stroke-width="1.6"/><line x1="52.4" y1="112.0" x2="52.4" y2="128.0" stroke="#3a3a3a" stroke-width="1.6"/><line x1="84.7" y1="112.0" x2="84.7" y2="128.0" stroke="#3a3a3a" stroke-width="1.6"/><line x1="119.9" y1="112.0" x2="119.9" y2="128.0" stroke="#3a3a3a" stroke-width="1.6"/></svg>