<svg xmlns="http://www.w3.org/2000/svg" width="128" height="128" viewBox="0 0 128 128"><rect width="128" height="128" fill="white"/><line x1="0.0" y1="0.0" x2="128.0" y2="0.0" stroke="#3a3a3a" stroke-width="2.0"/><line x1="0.0" y1="128.0" x2="128.0" y2="128.0" stroke="#3a3a3a" stroke-width="2.0"/><line x1="0.0" y1="16.0" x2="128.0" y2="16.0" stroke="#3a3a3a" stroke-width="1.4"/><line x1="0.0" y1="32.0" x2="128.0" y2="32.0" stroke="#3a3a3a" stroke-width="1.4"/><line x1="0.0" y1="48.0" x2="128.0" y2="48.0" stroke="#3a3a3a" stroke-width="1.4"/><line x1="0.0" y1="64.0" x2="128.0" y2="64.0" stroke="#3a3a3a" stroke-width="1.4"/><line x1="0.0" y1="80.0" x2="128.0" y2="80.0" stroke="#3a3a3a" stroke-width="1.4"/><line x1="0.0" y1="96.0" x2="128.0" y2="96.0" stroke="#3a3a3a" stroke-width="1.4"/><line x1="0.0" y1="112.0" x2="128.0" y2="112.0" stroke="#3a3a3a" stroke-width="1.4"/><line x1="27.5" y1="0.0" x2="27.5" y2="16.0" stroke="#3a3a3a" stroke-width="1.6"/><line x1="56.3" y1="0.0" x2="56.3" y2="16.0" stroke="#3a3a3a" stroke-width="1.6"/><line x1="91.6" y1="0.0" x2="91.6" y2="16.0" stroke="#3a3a3a" stroke-width="1.6"/><line x1="17.3" y1="16.0" x2="17.3" y2="32.0" stroke="#3a3a3a" stroke-width="1.6"/><line x1="47.9" y1="16.0" x2="47.9" y2="32.0" stroke="#3a3a3a" stroke-width="1.6"/><line x1="77.1" y1="16.0" x2="77.1" y2="32.0" stroke="#3a3a3a" stroke-width="1.6"/><line x1="109.5" y1="16.0" x2="109.5" y2="32.0" stroke="#3a3a3a" stroke-width="1.6"/><line x1="32.9" y1="32.0" x2="32.9" y2="48.0" stroke="#3a3a3a" stroke-width="1.6"/><line x1="61.2" y1="32.0" x2="61.2" y2="48.0" stroke="#3a3a3a" stroke-width="1.6"/><line x1="94.1" y1="32.0" x2="94.1" y2="48.0" stroke="#3a3a3a" stroke-width="1.6"/><line x1="18.7" y1="48.0" x2="18.7" y2="64.0" stroke="#3a3a3a" stroke-width="1.6"/><line x1="52.1" y1="48.0" x2="52.1" y2="64.0" stroke="#3a3a3a" stroke-width="1.6"/><line x1="81.8" y1="48.0" x2="81.8" y2="64.0" stroke="#3a3a3a" stroke-width="1.6"/><line x1="114.8" y1="48.0" x2="114.8" y2="64.0" stroke="#3a3a3a" stroke-width="1.6"/><line x1="35.9" y1="64.0" x2="35.9" y2="80.0" stroke="#3a3a3a" stroke-width="1.6"/><line x1="69.8" y1="64.0" x2="69.8" y2="80.0" stroke="#3a3a3a" stroke-width="1.6"/><line x1="101.7" y1="64.0" x2="101.7" y2="80.0" stroke="#3a3a3a" stroke-width="1.6"/><line x1="16.6" y1="80.0" x2="16.6" y2="96.0" stroke="#3a3a3a" stroke-width="1.6"/><line x1="50.8" y1="80.0" x2="50.8" y2="96.0" stroke="#3a3a3a" stroke-width="1.6"/><line x1="86.5" y1="80.0" x2="86.5" y2="96.0" stroke="#3a3a3a" stroke-width="1.6"/><line x1="116.1" y1="80.0" x2="116.1" y2="96.0" stroke="#3a3a3a" stroke-width="1.6"/><line x1="38.2" y1="96.0" x2="38.2" y2="112.0" stroke="#3a3a3a" stroke-width="1.6"/><line x1="73.5" y1="96.0" x2="73.5" y2="112.0" stroke="#3a3a3a" stroke-width="1.6"/><line x1="102.0" y1="96.0" x2="102.0" y2="112.0" stroke="#3a3a3a" stroke-width="1.6"/><line x1="15.4" y1="112.0" x2="15.4" y2="128.0" stroke="#3a3a3a" stroke-width="1.6"/><line x1="45.2" y1="112.0" x2="45.2" y2="128.0" stroke="#3a3a3a" stroke-width="1.6"/><line x1="81.0" y1="112.0" x2="81.0" y2="128.0" stroke="#3a3a3a" stroke-width="1.6"/><line x1="116.6" y1="112.0" x2="116.6" y2="128.0" stroke="#3a3a3a" stroke-width="1.6"/></svg>