<svg xmlns="http://www.w3.org/2000/svg" width="128" height="128" viewBox="0 0 128 128"><rect width="128" height="128" fill="white"/><line x1="0.0" y1="0.0" x2="128.0" y2="0.0" stroke="#3a3a3a" stroke-width="2.0"/><line x1="0.0" y1="128.0" x2="128.0" y2="128.0" stroke="#3a3a3a" stroke-width="2.0"/><line x1="0.0" y1="16.0" x2="128.0" y2="16.0" stroke="#3a3a3a" stroke-width="1.4"/><line x1="0.0" y1="32.0" x2="128.0" y2="32.0" stroke="#3a3a3a" stroke-width="1.4"/><line x1="0.0" y1="48.0" x2="128.0" y2="48.0" stroke="#3a3a3a" stroke-width="1.4"/><line x1="0.0" y1="64.0" x2="128.0" y2="64.0" stroke="#3a3a3a" stroke-width="1.4"/><line x1="0.0" y1="80.0" x2="128.0" y2="80.0" stroke="#3a3a3a" stroke-width="1.4"/><line x1="0.0" y1="96.0" x2="128.0" y2="96.0" stroke="#3a3a3a" stroke-width="1.4"/><line x1="0.0" y1="112.0" x2="128.0" y2="112.0" stroke="#3a3a3a" stroke-width="1.4"/><line x1="29.3" y1="0.0" x2="29.3" y2="16.0" stroke="#3a3a3a" stroke-width="1.6"/><line x1="60.6" y1="0.0" x2="60.6" y2="16.0" stroke="#3a3a3a" stroke-width="1.6"/><line x1="95.2" y1="0.0" x2="95.2" y2="16.0" stroke="#3a3a3a" stroke-width="1.6"/><line x1="18.8" y1="16.0" x2="18.8" y2="32.0" stroke="#3a3a3a" stroke-width="1.6"/><line x1="53.1" y1="16.0" x2="53.1" y2="32.0" stroke="#3a3a3a" stroke-width="1.6"/><line x1="86.2" y1="16.0" x2="86.2" y2="32.0" stroke="#3a3a3a" stroke-width="1.6"/><line x1="114.9" y1="16.0" x2="114.9" y2="32.0" stroke="#3a3a3a" stroke-width="1.6"/><line x1="30.1" y1="32.0" x2="30.1" y2="48.0" stroke="#3a3a3a" stroke-width="1.6"/><line x1="64.4" y1="32.0" x2="64.4" y2="48.0" stroke="#3a3a3a" stroke-width="1.6"/><line x1="92.6" y1="32.0" x2="92.6" y2="48.0" stroke="#3a3a3a" stroke-width="1.6"/><line x1="15.2" y1="48.0" x2="15.2" y2="64.0" stroke="#3a3a3a" stroke-width="1.6"/><line x1="44.1" y1="48.0" x2="44.1" y2="64.0" stroke="#3a3a3a" stroke-width="1.6"/><line x1="78.9" y1="48.0" x2="78.9" y2="64.0" stroke="#3a3a3a" stroke-width="1.6"/><line x1="110.2" y1="48.0" x2="110.2" y2="64.0" stroke="#3a3a3a" stroke-width="1.6"/><line x1="31.7" y1="64.0" x2="31.7" y2="80.0" stroke="#3a3a3a" stroke-width="1.6"/><line x1="66.8" y1="64.0" x2="66.8" y2="80.0" stroke="#3a3a3a" stroke-width="1.6"/><line x1="100.7" y1="64.0" x2="100.7" y2="80.0" stroke="#3a3a3a" stroke-width="1.6"/><line x1="18.1" y1="80.0" x2="18.1" y2="96.0" stroke="#3a3a3a" stroke-width="1.6"/><line x1="48.4" y1="80.0" x2="48.4" y2="96.0" stroke="#3a3a3a" stroke-width="1.6"/><line x1="81.4" y1="80.0" x2="81.4" y2="96.0" stroke="#3a3a3a" stroke-width="1.6"/><line x1="109.7" y1="80.0" x2="109.7" y2="96.0" stroke="#3a3a3a" stroke-width="1.6"/><line x1="35.4" y1="96.0" x2="35.4" y2="112.0" stroke="#3a3a3a" stroke-width="1.6"/><line x1="69.7" y1="96.0" x2="69.7" y2="112.0" stroke="#3a3a3a" stroke-width="1.6"/><line x1="101.6" y1="96.0" x2="101.6" y2="112.0" stroke="#3a3a3a" stroke-width="1.6"/><line x1="18.9" y1="112.0" x2="18.9" y2="128.0" stroke="#3a3a3a" stroke-width="1.6"/><line x1="50.7" y1="112.0" x2="50.7" y2="128.0" stroke="#3a3a3a" stroke-width="1.6"/><line x1="84.7" y1="112.0" x2="84.7" y2="128.0" stroke="#3a3a3a" stroke-width="1.6"/><line x1="112.9" y1="112.0" x2="112.9" y2="128.0" stroke="#3a3a3a" stroke-width="1.6"/></svg>