<svg xmlns="http://www.w3.org/2000/svg" width="128" height="128" viewBox="0 0 128 128"><rect width="128" height="128" fill="white"/><line x1="0.0" y1="0.0" x2="128.0" y2="0.0" stroke="#3a3a3a" stroke-width="2.0"/><line x1="0.0" y1="128.0" x2="128.0" y2="128.0" stroke="#3a3a3a" stroke-width="2.0"/><line x1="0.0" y1="16.0" x2="128.0" y2="16.0" stroke="#3a3a3a" stroke-width="1.4"/><line x1="0.0" y1="32.0" x2="128.0" y2="32.0" stroke="#3a3a3a" stroke-width="1.4"/><line x1="0.0" y1="48.0" x2="128.0" y2="48.0" stroke="#3a3a3a" stroke-width="1.4"/><line x1="0.0" y1="64.0" x2="128.0" y2="64.0" stroke="#3a3a3a" stroke-width="1.4"/><line x1="0.0" y1="80.0" x2="128.0" y2="80.0" stroke="#3a3a3a" stroke-width="1.4"/><line x1="0.0" y1="96.0" x2="128.0" y2="96.0" stroke="#3a3a3a" stroke-width="1.4"/><line x1="0.0" y1="112.0" x2="128.0" y2="112.0" stroke="#3a3a3a" stroke-width="1.4"/><line x1="32.2" y1="0.0" x2="32.2" y2="16.0" stroke="#3a3a3a" stroke-width="1.6"/><line x1="65.8" y1="0.0" x2="65.8" y2="16.0" stroke="#3a3a3a" stroke-width="1.6"/><line x1="99.4" y1="0.0" x2="99.4" y2="16.0" stroke="#3a3a3a" stroke-width="1.6"/><line x1="17.9" y1="16.0" x2="17.9" y2="32.0" stroke="#3a3a3a" stroke-width="1.6"/><line x1="51.5" y1="16.0" x2="51.5" y2="32.0" stroke="#3a3a3a" stroke-width="1.6"/><line x1="80.6" y1="16.0" x2="80.6" y2="32.0" stroke="#3a3a3a" stroke-width="1.6"/><line x1="111.8" y1="16.0" x2="111.8" y2="32.0" stroke="#3a3a3a" stroke-width="1.6"/><line x1="34.7" y1="32.0" x2="34.7" y2="48.0" stroke="#3a3a3a" stroke-width="1.6"/><line x1="64.4" y1="32.0" x2="64.4" y2="48.0" stroke="#3a3a3a" stroke-width="1.6"/><line x1="96.2" y1="32.0" x2="96.2" y2="48.0" stroke="#3a3a3a" stroke-width="1.6"/><line x1="17.1" y1="48.0" x2="17.1" y2="64.0" stroke="#3a3a3a" stroke-width="1.6"/><line x1="49.4" y1="48.0" x2="49.4" y2="64.0" stroke="#3a3a3a" stroke-width="1.6"/><line x1="82.2" y1="48.0" x2="82.2" y2="64.0" stroke="#3a3a3a" stroke-width="1.6"/><line x1="114.1" y1="48.0" x2="114.1" y2="64.0" stroke="#3a3a3a" stroke-width="1.6"/><line x1="36.9" y1="64.0" x2="36.9" y2="80.0" stroke="#3a3a3a" stroke-width="1.6"/><line x1="72.3" y1="64.0" x2="72.3" y2="80.0" stroke="#3a3a3a" stroke-width="1.6"/><line x1="107.2" y1="64.0" x2="107.2" y2="80.0" stroke="#3a3a3a" stroke-width="1.6"/><line x1="16.4" y1="80.0" x2="16.4" y2="96.0" stroke="#3a3a3a" stroke-width="1.6"/><line x1="45.5" y1="80.0" x2="45.5" y2="96.0" stroke="#3a3a3a" stroke-width="1.6"/><line x1="75.5" y1="80.0" x2="75.5" y2="96.0" stroke="#3a3a3a" stroke-width="1.6"/><line x1="108.8" y1="80.0" x2="108.8" y2="96.0" stroke="#3a3a3a" stroke-width="1.6"/><line x1="35.0" y1="96.0" x2="35.0" y2="112.0" stroke="#3a3a3a" stroke-width="1.6"/><line x1="63.7" y1="96.0" x2="63.7" y2="112.0" stroke="#3a3a3a" stroke-width="1.6"/><line x1="97.8" y1="96.0" x2="97.8" y2="112.0" stroke="#3a3a3a" stroke-width="1.6"/><line x1="14.5" y1="112.0" x2="14.5" y2="128.0" stroke="#3a3a3a" stroke-width="1.6"/><line x1="44.4" y1="112.0" x2="44.4" y2="128.0" stroke="#3a3a3a" stroke-width="1.6"/><line x1="79.9" y1="112.0" x2="79.9" y2="128.0" stroke="#3a3a3a" stroke-width="1.6"/><line x1="108.4" y1="112.0" x2="108.4" y2="128.0" stroke="#3a3a3a" stroke-width="1.6"/></svg>