<svg xmlns="http://www.w3.org/2000/svg" width="128" height="128" viewBox="0 0 128 128"><rect width="128" height="128" fill="white"/><line x1="0.0" y1="0.0" x2="128.0" y2="0.0" stroke="#3a3a3a" stroke-width="2.0"/><line x1="0.0" y1="128.0" x2="128.0" y2="128.0" stroke="#3a3a3a" stroke-width="2.0"/><line x1="0.0" y1="8.0" x2="128.0" y2="8.0" stroke="#3a3a3a" stroke-width="1.2"/><line x1="0.0" y1="16.0" x2="128.0" y2="16.0" stroke="#3a3a3a" stroke-width="1.2"/><line x1="0.0" y1="24.0" x2="128.0" y2="24.0" stroke="#3a3a3a" stroke-width="1.2"/><line x1="0.0" y1="32.0" x2="128.0" y2="32.0" stroke="#3a3a3a" stroke-width="1.2"/><line x1="0.0" y1="40.0" x2="128.0" y2="40.0" stroke="#3a3a3a" stroke-width="1.2"/><line x1="0.0" y1="48.0" x2="128.0" y2="48.0" stroke="#3a3a3a" stroke-width="1.2"/><line x1="0.0" y1="56.0" x2="128.0" y2="56.0" stroke="#3a3a3a" stroke-width="1.2"/><line x1="0.0" y1="64.0" x2="128.0" y2="64.0" stroke="#3a3a3a" stroke-width="1.2"/><line x1="0.0" y1="72.0" x2="128.0" y2="72.0" stroke="#3a3a3a" stroke-width="1.2"/><line x1="0.0" y1="80.0" x2="128.0" y2="80.0" stroke="#3a3a3a" stroke-width="1.2"/><line x1="0.0" y1="88.0" x2="128.0" y2="88.0" stroke="#3a3a3a" stroke-width="1.2"/><line x1="0.0" y1="96.0" x2="128.0" y2="96.0" stroke="#3a3a3a" stroke-width="1.2"/><line x1="0.0" y1="104.0" x2="128.0" y2="104.0" stroke="#3a3a3a" stroke-width="1.2"/><line x1="0.0" y1="112.0" x2="128.0" y2="112.0" stroke="#3a3a3a" stroke-width="1.2"/><line x1="0.0" y1="120.0" x2="128.0" y2="120.0" stroke="#3a3a3a" stroke-width="1.2"/><line x1="110.0" y1="0.0" x2="110.0" y2="8.0" stroke="#3a3a3a" stroke-width="1.6"/><line x1="79.8" y1="8.0" x2="79.8" y2="16.0" stroke="#3a3a3a" stroke-width="1.6"/><line x1="39.1" y1="16.0" x2="39.1" y2="24.0" stroke="#3a3a3a" stroke-width="1.6"/><line x1="55.9" y1="24.0" x2="55.9" y2="32.0" stroke="#3a3a3a" stroke-width="1.6"/><line x1="81.7" y1="48.0" x2="81.7" y2="56.0" stroke="#3a3a3a" stroke-width="1.6"/><line x1="48.2" y1="56.0" x2="48.2" y2="64.0" stroke="#3a3a3a" stroke-width="1.6"/><line x1="45.3" y1="64.0" x2="45.3" y2="72.0" stroke="#3a3a3a" stroke-width="1.6"/><line x1="12.3" y1="96.0" x2="12.3" y2="104.0" stroke="#3a3a3a" stroke-width="1.6"/><line x1="58.3" y1="112.0" x2="58.3" y2="120.0" stroke="#3a3a3a" stroke-width="1.6"/><line x1="56.3" y1="120.0" x2="56.3" y2="128.0" stroke="#3a3a3a" stroke-width="1.6"/></svg>