<svg xmlns="http://www.w3.org/2000/svg" width="128" height="128" viewBox="0 0 128 128"><rect width="128" height="128" fill="white"/><line x1="0.0" y1="0.0" x2="128.0" y2="0.0" stroke="#3a3a3a" stroke-width="2.0"/><line x1="0.0" y1="128.0" x2="128.0" y2="128.0" stroke="#3a3a3a" stroke-width="2.0"/><line x1="0.0" y1="26.0" x2="128.0" y2="26.0" stroke="#3a3a3a" stroke-width="2.0"/><line x1="0.0" y1="52.0" x2="128.0" y2="52.0" stroke="#3a3a3a" stroke-width="2.0"/><line x1="0.0" y1="78.0" x2="128.0" y2="78.0" stroke="#3a3a3a" stroke-width="2.0"/><line x1="0.0" y1="104.0" x2="128.0" y2="104.0" stroke="#3a3a3a" stroke-width="2.0"/><line x1="52.7" y1="0.0" x2="52.7" y2="26.0" stroke="#3a3a3a" stroke-width="1.6"/><line x1="92.7" y1="0.0" x2="92.7" y2="26.0" stroke="#3a3a3a" stroke-width="1.6"/><line x1="64.0" y1="26.0" x2="64.0" y2="52.0" stroke="#3a3a3a" stroke-width="1.6"/><line x1="94.7" y1="26.0" x2="94.7" y2="52.0" stroke="#3a3a3a" stroke-width="1.6"/><line x1="57.9" y1="52.0" x2="57.9" y2="78.0" stroke="#3a3a3a" stroke-width="1.6"/><line x1="109.3" y1="52.0" x2="109.3" y2="78.0" stroke="#3a3a3a" stroke-width="1.6"/><line x1="47.6" y1="78.0" x2="44.3" y2="104.0" stroke="#3a3a3a" stroke-width="1.6"/><line x1="90.2" y1="78.0" x2="92.1" y2="104.0" stroke="#3a3a3a" stroke-width="1.6"/><line x1="63.4" y1="104.0" x2="63.4" y2="128.0" stroke="#3a3a3a" stroke-width="1.6"/></svg>