<svg xmlns="http://www.w3.org/2000/svg" width="128" height="128" viewBox="0 0 128 128"><rect width="128" height="128" fill="white"/><line x1="0.0" y1="0.0" x2="128.0" y2="0.0" stroke="#3a3a3a" stroke-width="2.0"/><line x1="0.0" y1="128.0" x2="128.0" y2="128.0" stroke="#3a3a3a" stroke-width="2.0"/><line x1="0.0" y1="26.0" x2="128.0" y2="26.0" stroke="#3a3a3a" stroke-width="2.0"/><line x1="0.0" y1="52.0" x2="128.0" y2="52.0" stroke="#3a3a3a" stroke-width="2.0"/><line x1="0.0" y1="78.0" x2="128.0" y2="78.0" stroke="#3a3a3a" stroke-width="2.0"/><line x1="0.0" y1="104.0" x2="128.0" y2="104.0" stroke="#3a3a3a" stroke-width="2.0"/><line x1="34.7" y1="0.0" x2="32.7" y2="26.0" stroke="#3a3a3a" stroke-width="1.6"/><line x1="66.9" y1="0.0" x2="66.9" y2="26.0" stroke="#3a3a3a" stroke-width="1.6"/><line x1="42.3" y1="26.0" x2="46.1" y2="52.0" stroke="#3a3a3a" stroke-width="1.6"/><line x1="85.6" y1="26.0" x2="85.6" y2="52.0" stroke="#3a3a3a" stroke-width="1.6"/><line x1="119.0" y1="26.0" x2="119.0" y2="52.0" stroke="#3a3a3a" stroke-width="1.6"/><line x1="43.6" y1="52.0" x2="43.6" y2="78.0" stroke="#3a3a3a" stroke-width="1.6"/><line x1="86.9" y1="52.0" x2="86.9" y2="78.0" stroke="#3a3a3a" stroke-width="1.6"/><line x1="117.4" y1="52.0" x2="117.6" y2="78.0" stroke="#3a3a3a" stroke-width="1.6"/><line x1="51.0" y1="78.0" x2="51.0" y2="104.0" stroke="#3a3a3a" stroke-width="1.6"/><line x1="89.2" y1="78.0" x2="89.0" y2="104.0" stroke="#3a3a3a" stroke-width="1.6"/><line x1="51.8" y1="104.0" x2="51.6" y2="128.0" stroke="#3a3a3a" stroke-width="1.6"/><line x1="86.9" y1="104.0" x2="86.9" y2="128.0" stroke="#3a3a3a" stroke-width="1.6"/></svg>