<svg xmlns="http://www.w3.org/2000/svg" width="128" height="128" viewBox="0 0 128 128"><rect width="128" height="128" fill="white"/><line x1="0.0" y1="0.0" x2="128.0" y2="0.0" stroke="#3a3a3a" stroke-width="2.0"/><line x1="0.0" y1="128.0" x2="128.0" y2="128.0" stroke="#3a3a3a" stroke-width="2.0"/><line x1="0.0" y1="26.0" x2="128.0" y2="26.0" stroke="#3a3a3a" stroke-width="2.0"/><line x1="0.0" y1="52.0" x2="128.0" y2="52.0" stroke="#3a3a3a" stroke-width="2.0"/><line x1="0.0" y1="78.0" x2="128.0" y2="78.0" stroke="#3a3a3a" stroke-width="2.0"/><line x1="0.0" y1="104.0" x2="128.0" y2="104.0" stroke="#3a3a3a" stroke-width="2.0"/><line x1="43.4" y1="0.0" x2="43.4" y2="26.0" stroke="#3a3a3a" stroke-width="1.6"/><line x1="97.5" y1="0.0" x2="97.5" y2="26.0" stroke="#3a3a3a" stroke-width="1.6"/><line x1="49.1" y1="26.0" x2="49.1" y2="52.0" stroke="#3a3a3a" stroke-width="1.6"/><line x1="107.9" y1="26.0" x2="107.9" y2="52.0" stroke="#3a3a3a" stroke-width="1.6"/><line x1="30.8" y1="52.0" x2="27.7" y2="78.0" stroke="#3a3a3a" stroke-width="1.6"/><line x1="72.7" y1="52.0" x2="72.7" y2="78.0" stroke="#3a3a3a" stroke-width="1.6"/><line x1="109.9" y1="52.0" x2="111.8" y2="78.0" stroke="#3a3a3a" stroke-width="1.6"/><line x1="44.0" y1="78.0" x2="42.7" y2="104.0" stroke="#3a3a3a" stroke-width="1.6"/><line x1="101.2" y1="78.0" x2="101.2" y2="104.0" stroke="#3a3a3a" stroke-width="1.6"/><line x1="47.6" y1="104.0" x2="47.6" y2="128.0" stroke="#3a3a3a" stroke-width="1.6"/><line x1="110.9" y1="104.0" x2="110.9" y2="128.0" stroke="#3a3a3a" stroke-width="1.6"/></svg>