<svg xmlns="http://www.w3.org/2000/svg" width="128" height="128" viewBox="0 0 128 128"><rect width="128" height="128" fill="white"/><line x1="0.0" y1="0.0" x2="128.0" y2="0.0" stroke="#3a3a3a" stroke-width="2.0"/><line x1="0.0" y1="128.0" x2="128.0" y2="128.0" stroke="#3a3a3a" stroke-width="2.0"/><line x1="0.0" y1="26.0" x2="128.0" y2="26.0" stroke="#3a3a3a" stroke-width="2.0"/><line x1="0.0" y1="52.0" x2="128.0" y2="52.0" stroke="#3a3a3a" stroke-width="2.0"/><line x1="0.0" y1="78.0" x2="128.0" y2="78.0" stroke="#3a3a3a" stroke-width="2.0"/><line x1="0.0" y1="104.0" x2="128.0" y2="104.0" stroke="#3a3a3a" stroke-width="2.0"/><line x1="54.8" y1="0.0" x2="57.0" y2="26.0" stroke="#3a3a3a" stroke-width="1.6"/><line x1="106.4" y1="0.0" x2="106.4" y2="26.0" stroke="#3a3a3a" stroke-width="1.6"/><line x1="46.0" y1="26.0" x2="46.0" y2="52.0" stroke="#3a3a3a" stroke-width="1.6"/><line x1="99.0" y1="26.0" x2="99.6" y2="52.0" stroke="#3a3a3a" stroke-width="1.6"/><line x1="38.6" y1="52.0" x2="36.3" y2="78.0" stroke="#3a3a3a" stroke-width="1.6"/><line x1="91.6" y1="52.0" x2="91.6" y2="78.0" stroke="#3a3a3a" stroke-width="1.6"/><line x1="34.8" y1="78.0" x2="34.8" y2="104.0" stroke="#3a3a3a" stroke-width="1.6"/><line x1="66.3" y1="78.0" x2="66.3" y2="104.0" stroke="#3a3a3a" stroke-width="1.6"/><line x1="117.4" y1="78.0" x2="117.5" y2="104.0" stroke="#3a3a3a" stroke-width="1.6"/><line x1="62.9" y1="104.0" x2="62.9" y2="128.0" stroke="#3a3a3a" stroke-width="1.6"/><line x1="96.5" y1="104.0" x2="96.5" y2="128.0" stroke="#3a3a3a" stroke-width="1.6"/></svg>